<svg width="171" height="254" viewBox="0 0 171 254" fill="none" xmlns="http://www.w3.org/2000/svg">
<path d="M9.072 6.768V8.96H6.096V18H3.36V8.96H0.384V6.768H9.072ZM9.90113 13.52C9.90113 12.6027 10.0718 11.7973 10.4131 11.104C10.7651 10.4107 11.2398 9.87733 11.8371 9.504C12.4345 9.13067 13.1011 8.944 13.8371 8.944C14.4665 8.944 15.0158 9.072 15.4851 9.328C15.9651 9.584 16.3331 9.92 16.5891 10.336V9.072H19.3251V18H16.5891V16.736C16.3225 17.152 15.9491 17.488 15.4691 17.744C14.9998 18 14.4505 18.128 13.8211 18.128C13.0958 18.128 12.4345 17.9413 11.8371 17.568C11.2398 17.184 10.7651 16.6453 10.4131 15.952C10.0718 15.248 9.90113 14.4373 9.90113 13.52ZM16.5891 13.536C16.5891 12.8533 16.3971 12.3147 16.0131 11.92C15.6398 11.5253 15.1811 11.328 14.6371 11.328C14.0931 11.328 13.6291 11.5253 13.2451 11.92C12.8718 12.304 12.6851 12.8373 12.6851 13.52C12.6851 14.2027 12.8718 14.7467 13.2451 15.152C13.6291 15.5467 14.0931 15.744 14.6371 15.744C15.1811 15.744 15.6398 15.5467 16.0131 15.152C16.3971 14.7573 16.5891 14.2187 16.5891 13.536ZM24.0405 6.16V18H21.3045V6.16H24.0405ZM30.0393 15.44L31.9753 9.072H34.8873L31.7193 18H28.3433L25.1753 9.072H28.1033L30.0393 15.44ZM44.4549 13.392C44.4549 13.648 44.4389 13.9147 44.4069 14.192H38.2149C38.2575 14.7467 38.4335 15.1733 38.7429 15.472C39.0629 15.76 39.4522 15.904 39.9109 15.904C40.5935 15.904 41.0682 15.616 41.3349 15.04H44.2469C44.0975 15.6267 43.8255 16.1547 43.4309 16.624C43.0469 17.0933 42.5615 17.4613 41.9749 17.728C41.3882 17.9947 40.7322 18.128 40.0069 18.128C39.1322 18.128 38.3535 17.9413 37.6709 17.568C36.9882 17.1947 36.4549 16.6613 36.0709 15.968C35.6869 15.2747 35.4949 14.464 35.4949 13.536C35.4949 12.608 35.6815 11.7973 36.0549 11.104C36.4389 10.4107 36.9722 9.87733 37.6549 9.504C38.3375 9.13067 39.1215 8.944 40.0069 8.944C40.8709 8.944 41.6389 9.12533 42.3109 9.488C42.9829 9.85067 43.5055 10.368 43.8789 11.04C44.2629 11.712 44.4549 12.496 44.4549 13.392ZM41.6549 12.672C41.6549 12.2027 41.4949 11.8293 41.1749 11.552C40.8549 11.2747 40.4549 11.136 39.9749 11.136C39.5162 11.136 39.1269 11.2693 38.8069 11.536C38.4975 11.8027 38.3055 12.1813 38.2309 12.672H41.6549ZM48.4583 15.744H52.3303V18H45.4023V15.824L49.1143 11.328H45.4342V9.072H52.2503V11.248L48.4583 15.744ZM61.2424 15.44L63.1784 9.072H66.0904L62.9224 18H59.5464L56.3784 9.072H59.3064L61.2424 15.44ZM71.306 18.128C70.4313 18.128 69.642 17.9413 68.938 17.568C68.2447 17.1947 67.6953 16.6613 67.29 15.968C66.8953 15.2747 66.698 14.464 66.698 13.536C66.698 12.6187 66.9007 11.8133 67.306 11.12C67.7113 10.416 68.266 9.87733 68.97 9.504C69.674 9.13067 70.4633 8.944 71.338 8.944C72.2127 8.944 73.002 9.13067 73.706 9.504C74.41 9.87733 74.9647 10.416 75.37 11.12C75.7753 11.8133 75.978 12.6187 75.978 13.536C75.978 14.4533 75.77 15.264 75.354 15.968C74.9487 16.6613 74.3887 17.1947 73.674 17.568C72.97 17.9413 72.1807 18.128 71.306 18.128ZM71.306 15.76C71.8287 15.76 72.2713 15.568 72.634 15.184C73.0073 14.8 73.194 14.2507 73.194 13.536C73.194 12.8213 73.0127 12.272 72.65 11.888C72.298 11.504 71.8607 11.312 71.338 11.312C70.8047 11.312 70.362 11.504 70.01 11.888C69.658 12.2613 69.482 12.8107 69.482 13.536C69.482 14.2507 69.6527 14.8 69.994 15.184C70.346 15.568 70.7833 15.76 71.306 15.76ZM76.8855 13.536C76.8855 12.608 77.0722 11.7973 77.4455 11.104C77.8295 10.4107 78.3575 9.87733 79.0295 9.504C79.7122 9.13067 80.4908 8.944 81.3655 8.944C82.4855 8.944 83.4188 9.23733 84.1655 9.824C84.9228 10.4107 85.4188 11.2373 85.6535 12.304H82.7415C82.4962 11.6213 82.0215 11.28 81.3175 11.28C80.8162 11.28 80.4162 11.4773 80.1175 11.872C79.8188 12.256 79.6695 12.8107 79.6695 13.536C79.6695 14.2613 79.8188 14.8213 80.1175 15.216C80.4162 15.6 80.8162 15.792 81.3175 15.792C82.0215 15.792 82.4962 15.4507 82.7415 14.768H85.6535C85.4188 15.8133 84.9228 16.6347 84.1655 17.232C83.4082 17.8293 82.4748 18.128 81.3655 18.128C80.4908 18.128 79.7122 17.9413 79.0295 17.568C78.3575 17.1947 77.8295 16.6613 77.4455 15.968C77.0722 15.2747 76.8855 14.464 76.8855 13.536ZM95.533 13.392C95.533 13.648 95.517 13.9147 95.485 14.192H89.293C89.3357 14.7467 89.5117 15.1733 89.821 15.472C90.141 15.76 90.5303 15.904 90.989 15.904C91.6717 15.904 92.1463 15.616 92.413 15.04H95.325C95.1757 15.6267 94.9037 16.1547 94.509 16.624C94.125 17.0933 93.6397 17.4613 93.053 17.728C92.4663 17.9947 91.8103 18.128 91.085 18.128C90.2103 18.128 89.4317 17.9413 88.749 17.568C88.0663 17.1947 87.533 16.6613 87.149 15.968C86.765 15.2747 86.573 14.464 86.573 13.536C86.573 12.608 86.7597 11.7973 87.133 11.104C87.517 10.4107 88.0503 9.87733 88.733 9.504C89.4157 9.13067 90.1997 8.944 91.085 8.944C91.949 8.944 92.717 9.12533 93.389 9.488C94.061 9.85067 94.5837 10.368 94.957 11.04C95.341 11.712 95.533 12.496 95.533 13.392ZM92.733 12.672C92.733 12.2027 92.573 11.8293 92.253 11.552C91.933 11.2747 91.533 11.136 91.053 11.136C90.5943 11.136 90.205 11.2693 89.885 11.536C89.5757 11.8027 89.3837 12.1813 89.309 12.672H92.733ZM91.053 7.088L88.573 8.4V6.512L91.053 5.248L93.533 6.512V8.4L91.053 7.088ZM105.343 15.68V18H103.951C102.959 18 102.186 17.76 101.631 17.28C101.076 16.7893 100.799 15.9947 100.799 14.896V11.344H99.711V9.072H100.799V6.896H103.535V9.072H105.327V11.344H103.535V14.928C103.535 15.1947 103.599 15.3867 103.727 15.504C103.855 15.6213 104.068 15.68 104.367 15.68H105.343ZM106.323 13.52C106.323 12.6027 106.494 11.7973 106.835 11.104C107.187 10.4107 107.662 9.87733 108.259 9.504C108.856 9.13067 109.523 8.944 110.259 8.944C110.888 8.944 111.438 9.072 111.907 9.328C112.387 9.584 112.755 9.92 113.011 10.336V9.072H115.747V18H113.011V16.736C112.744 17.152 112.371 17.488 111.891 17.744C111.422 18 110.872 18.128 110.243 18.128C109.518 18.128 108.856 17.9413 108.259 17.568C107.662 17.184 107.187 16.6453 106.835 15.952C106.494 15.248 106.323 14.4373 106.323 13.52ZM113.011 13.536C113.011 12.8533 112.819 12.3147 112.435 11.92C112.062 11.5253 111.603 11.328 111.059 11.328C110.515 11.328 110.051 11.5253 109.667 11.92C109.294 12.304 109.107 12.8373 109.107 13.52C109.107 14.2027 109.294 14.7467 109.667 15.152C110.051 15.5467 110.515 15.744 111.059 15.744C111.603 15.744 112.062 15.5467 112.435 15.152C112.819 14.7573 113.011 14.2187 113.011 13.536ZM129.118 8.976C130.228 8.976 131.108 9.312 131.758 9.984C132.42 10.656 132.75 11.5893 132.75 12.784V18H130.03V13.152C130.03 12.576 129.876 12.1333 129.566 11.824C129.268 11.504 128.852 11.344 128.318 11.344C127.785 11.344 127.364 11.504 127.054 11.824C126.756 12.1333 126.606 12.576 126.606 13.152V18H123.886V13.152C123.886 12.576 123.732 12.1333 123.422 11.824C123.124 11.504 122.708 11.344 122.174 11.344C121.641 11.344 121.22 11.504 120.91 11.824C120.612 12.1333 120.462 12.576 120.462 13.152V18H117.726V9.072H120.462V10.192C120.74 9.81867 121.102 9.52533 121.55 9.312C121.998 9.088 122.505 8.976 123.07 8.976C123.742 8.976 124.34 9.12 124.862 9.408C125.396 9.696 125.812 10.1067 126.11 10.64C126.42 10.1493 126.841 9.74933 127.374 9.44C127.908 9.13067 128.489 8.976 129.118 8.976ZM137.4 10.336C137.656 9.92 138.024 9.584 138.504 9.328C138.984 9.072 139.533 8.944 140.152 8.944C140.888 8.944 141.555 9.13067 142.152 9.504C142.749 9.87733 143.219 10.4107 143.56 11.104C143.912 11.7973 144.088 12.6027 144.088 13.52C144.088 14.4373 143.912 15.248 143.56 15.952C143.219 16.6453 142.749 17.184 142.152 17.568C141.555 17.9413 140.888 18.128 140.152 18.128C139.523 18.128 138.973 18.0053 138.504 17.76C138.035 17.504 137.667 17.168 137.4 16.752V18H134.664V6.16H137.4V10.336ZM141.304 13.52C141.304 12.8373 141.112 12.304 140.728 11.92C140.355 11.5253 139.891 11.328 139.336 11.328C138.792 11.328 138.328 11.5253 137.944 11.92C137.571 12.3147 137.384 12.8533 137.384 13.536C137.384 14.2187 137.571 14.7573 137.944 15.152C138.328 15.5467 138.792 15.744 139.336 15.744C139.88 15.744 140.344 15.5467 140.728 15.152C141.112 14.7467 141.304 14.2027 141.304 13.52ZM153.939 13.392C153.939 13.648 153.923 13.9147 153.891 14.192H147.699C147.742 14.7467 147.918 15.1733 148.227 15.472C148.547 15.76 148.937 15.904 149.395 15.904C150.078 15.904 150.553 15.616 150.819 15.04H153.731C153.582 15.6267 153.31 16.1547 152.915 16.624C152.531 17.0933 152.046 17.4613 151.459 17.728C150.873 17.9947 150.217 18.128 149.491 18.128C148.617 18.128 147.838 17.9413 147.155 17.568C146.473 17.1947 145.939 16.6613 145.555 15.968C145.171 15.2747 144.979 14.464 144.979 13.536C144.979 12.608 145.166 11.7973 145.539 11.104C145.923 10.4107 146.457 9.87733 147.139 9.504C147.822 9.13067 148.606 8.944 149.491 8.944C150.355 8.944 151.123 9.12533 151.795 9.488C152.467 9.85067 152.99 10.368 153.363 11.04C153.747 11.712 153.939 12.496 153.939 13.392ZM151.139 12.672C151.139 12.2027 150.979 11.8293 150.659 11.552C150.339 11.2747 149.939 11.136 149.459 11.136C149.001 11.136 148.611 11.2693 148.291 11.536C147.982 11.8027 147.79 12.1813 147.715 12.672H151.139ZM151.331 6.784L147.475 8.4V6.512L151.331 4.656V6.784ZM166.775 8.976C167.884 8.976 168.764 9.312 169.415 9.984C170.076 10.656 170.407 11.5893 170.407 12.784V18H167.687V13.152C167.687 12.576 167.532 12.1333 167.223 11.824C166.924 11.504 166.508 11.344 165.975 11.344C165.441 11.344 165.02 11.504 164.711 11.824C164.412 12.1333 164.263 12.576 164.263 13.152V18H161.543V13.152C161.543 12.576 161.388 12.1333 161.079 11.824C160.78 11.504 160.364 11.344 159.831 11.344C159.297 11.344 158.876 11.504 158.567 11.824C158.268 12.1333 158.119 12.576 158.119 13.152V18H155.383V9.072H158.119V10.192C158.396 9.81867 158.759 9.52533 159.207 9.312C159.655 9.088 160.161 8.976 160.727 8.976C161.399 8.976 161.996 9.12 162.519 9.408C163.052 9.696 163.468 10.1067 163.767 10.64C164.076 10.1493 164.497 9.74933 165.031 9.44C165.564 9.13067 166.145 8.976 166.775 8.976ZM4.624 42.128C3.84533 42.128 3.152 41.9947 2.544 41.728C1.936 41.4613 1.456 41.0987 1.104 40.64C0.752 40.1707 0.554667 39.648 0.512 39.072H3.216C3.248 39.3813 3.392 39.632 3.648 39.824C3.904 40.016 4.21867 40.112 4.592 40.112C4.93333 40.112 5.19467 40.048 5.376 39.92C5.568 39.7813 5.664 39.6053 5.664 39.392C5.664 39.136 5.53067 38.9493 5.264 38.832C4.99733 38.704 4.56533 38.5653 3.968 38.416C3.328 38.2667 2.79467 38.112 2.368 37.952C1.94133 37.7813 1.57333 37.52 1.264 37.168C0.954667 36.8053 0.8 36.32 0.8 35.712C0.8 35.2 0.938667 34.736 1.216 34.32C1.504 33.8933 1.92 33.5573 2.464 33.312C3.01867 33.0667 3.67467 32.944 4.432 32.944C5.552 32.944 6.432 33.2213 7.072 33.776C7.72267 34.3307 8.096 35.0667 8.192 35.984H5.664C5.62133 35.6747 5.48267 35.4293 5.248 35.248C5.024 35.0667 4.72533 34.976 4.352 34.976C4.032 34.976 3.78667 35.04 3.616 35.168C3.44533 35.2853 3.36 35.4507 3.36 35.664C3.36 35.92 3.49333 36.112 3.76 36.24C4.03733 36.368 4.464 36.496 5.04 36.624C5.70133 36.7947 6.24 36.9653 6.656 37.136C7.072 37.296 7.43467 37.5627 7.744 37.936C8.064 38.2987 8.22933 38.7893 8.24 39.408C8.24 39.9307 8.09067 40.4 7.792 40.816C7.504 41.2213 7.08267 41.5413 6.528 41.776C5.984 42.0107 5.34933 42.128 4.624 42.128ZM18.3299 37.392C18.3299 37.648 18.3139 37.9147 18.2819 38.192H12.0899C12.1325 38.7467 12.3085 39.1733 12.6179 39.472C12.9379 39.76 13.3272 39.904 13.7859 39.904C14.4685 39.904 14.9432 39.616 15.2099 39.04H18.1219C17.9725 39.6267 17.7005 40.1547 17.3059 40.624C16.9219 41.0933 16.4365 41.4613 15.8499 41.728C15.2632 41.9947 14.6072 42.128 13.8819 42.128C13.0072 42.128 12.2285 41.9413 11.5459 41.568C10.8632 41.1947 10.3299 40.6613 9.94588 39.968C9.56188 39.2747 9.36988 38.464 9.36988 37.536C9.36988 36.608 9.55654 35.7973 9.92988 35.104C10.3139 34.4107 10.8472 33.8773 11.5299 33.504C12.2125 33.1307 12.9965 32.944 13.8819 32.944C14.7459 32.944 15.5139 33.1253 16.1859 33.488C16.8579 33.8507 17.3805 34.368 17.7539 35.04C18.1379 35.712 18.3299 36.496 18.3299 37.392ZM15.5299 36.672C15.5299 36.2027 15.3699 35.8293 15.0499 35.552C14.7299 35.2747 14.3299 35.136 13.8499 35.136C13.3912 35.136 13.0019 35.2693 12.6819 35.536C12.3725 35.8027 12.1805 36.1813 12.1059 36.672H15.5299ZM24.5399 32.144C24.0599 32.144 23.6652 32.0053 23.3559 31.728C23.0572 31.44 22.9079 31.088 22.9079 30.672C22.9079 30.2453 23.0572 29.8933 23.3559 29.616C23.6652 29.328 24.0599 29.184 24.5399 29.184C25.0092 29.184 25.3932 29.328 25.6919 29.616C26.0012 29.8933 26.1559 30.2453 26.1559 30.672C26.1559 31.088 26.0012 31.44 25.6919 31.728C25.3932 32.0053 25.0092 32.144 24.5399 32.144ZM25.8999 33.072V42H23.1639V33.072H25.8999ZM33.3226 32.976C34.368 32.976 35.2 33.3173 35.8186 34C36.448 34.672 36.7626 35.6 36.7626 36.784V42H34.0426V37.152C34.0426 36.5547 33.888 36.0907 33.5786 35.76C33.2693 35.4293 32.8533 35.264 32.3306 35.264C31.808 35.264 31.392 35.4293 31.0826 35.76C30.7733 36.0907 30.6186 36.5547 30.6186 37.152V42H27.8826V33.072H30.6186V34.256C30.896 33.8613 31.2693 33.552 31.7386 33.328C32.208 33.0933 32.736 32.976 33.3226 32.976ZM43.6399 39.68V42H42.2479C41.2559 42 40.4825 41.76 39.9279 41.28C39.3732 40.7893 39.0959 39.9947 39.0959 38.896V35.344H38.0079V33.072H39.0959V30.896H41.8319V33.072H43.6239V35.344H41.8319V38.928C41.8319 39.1947 41.8959 39.3867 42.0239 39.504C42.1519 39.6213 42.3652 39.68 42.6639 39.68H43.6399ZM53.5799 37.392C53.5799 37.648 53.5639 37.9147 53.5319 38.192H47.3399C47.3825 38.7467 47.5585 39.1733 47.8679 39.472C48.1879 39.76 48.5772 39.904 49.0359 39.904C49.7185 39.904 50.1932 39.616 50.4599 39.04H53.3719C53.2225 39.6267 52.9505 40.1547 52.5559 40.624C52.1719 41.0933 51.6865 41.4613 51.0999 41.728C50.5132 41.9947 49.8572 42.128 49.1319 42.128C48.2572 42.128 47.4785 41.9413 46.7959 41.568C46.1132 41.1947 45.5799 40.6613 45.1959 39.968C44.8119 39.2747 44.6199 38.464 44.6199 37.536C44.6199 36.608 44.8065 35.7973 45.1799 35.104C45.5639 34.4107 46.0972 33.8773 46.7799 33.504C47.4625 33.1307 48.2465 32.944 49.1319 32.944C49.9959 32.944 50.7639 33.1253 51.4359 33.488C52.1079 33.8507 52.6305 34.368 53.0039 35.04C53.3879 35.712 53.5799 36.496 53.5799 37.392ZM50.7799 36.672C50.7799 36.2027 50.6199 35.8293 50.2999 35.552C49.9799 35.2747 49.5799 35.136 49.0999 35.136C48.6412 35.136 48.2519 35.2693 47.9319 35.536C47.6225 35.8027 47.4305 36.1813 47.3559 36.672H50.7799ZM57.7593 34.56C58.0793 34.0693 58.4793 33.6853 58.9593 33.408C59.4393 33.12 59.9726 32.976 60.5593 32.976V35.872H59.8073C59.1246 35.872 58.6126 36.0213 58.2713 36.32C57.9299 36.608 57.7593 37.12 57.7593 37.856V42H55.0233V33.072H57.7593V34.56ZM70.283 37.392C70.283 37.648 70.267 37.9147 70.235 38.192H64.043C64.0857 38.7467 64.2617 39.1733 64.571 39.472C64.891 39.76 65.2803 39.904 65.739 39.904C66.4217 39.904 66.8963 39.616 67.163 39.04H70.075C69.9257 39.6267 69.6537 40.1547 69.259 40.624C68.875 41.0933 68.3897 41.4613 67.803 41.728C67.2163 41.9947 66.5603 42.128 65.835 42.128C64.9603 42.128 64.1817 41.9413 63.499 41.568C62.8163 41.1947 62.283 40.6613 61.899 39.968C61.515 39.2747 61.323 38.464 61.323 37.536C61.323 36.608 61.5097 35.7973 61.883 35.104C62.267 34.4107 62.8003 33.8773 63.483 33.504C64.1657 33.1307 64.9497 32.944 65.835 32.944C66.699 32.944 67.467 33.1253 68.139 33.488C68.811 33.8507 69.3337 34.368 69.707 35.04C70.091 35.712 70.283 36.496 70.283 37.392ZM67.483 36.672C67.483 36.2027 67.323 35.8293 67.003 35.552C66.683 35.2747 66.283 35.136 65.803 35.136C65.3443 35.136 64.955 35.2693 64.635 35.536C64.3257 35.8027 64.1337 36.1813 64.059 36.672H67.483ZM75.3584 42.128C74.5797 42.128 73.8864 41.9947 73.2784 41.728C72.6704 41.4613 72.1904 41.0987 71.8384 40.64C71.4864 40.1707 71.289 39.648 71.2464 39.072H73.9504C73.9824 39.3813 74.1264 39.632 74.3824 39.824C74.6384 40.016 74.953 40.112 75.3264 40.112C75.6677 40.112 75.929 40.048 76.1104 39.92C76.3024 39.7813 76.3984 39.6053 76.3984 39.392C76.3984 39.136 76.265 38.9493 75.9984 38.832C75.7317 38.704 75.2997 38.5653 74.7024 38.416C74.0624 38.2667 73.529 38.112 73.1024 37.952C72.6757 37.7813 72.3077 37.52 71.9984 37.168C71.689 36.8053 71.5344 36.32 71.5344 35.712C71.5344 35.2 71.673 34.736 71.9504 34.32C72.2384 33.8933 72.6544 33.5573 73.1984 33.312C73.753 33.0667 74.409 32.944 75.1664 32.944C76.2864 32.944 77.1664 33.2213 77.8064 33.776C78.457 34.3307 78.8304 35.0667 78.9264 35.984H76.3984C76.3557 35.6747 76.217 35.4293 75.9824 35.248C75.7584 35.0667 75.4597 34.976 75.0864 34.976C74.7664 34.976 74.521 35.04 74.3504 35.168C74.1797 35.2853 74.0944 35.4507 74.0944 35.664C74.0944 35.92 74.2277 36.112 74.4944 36.24C74.7717 36.368 75.1984 36.496 75.7744 36.624C76.4357 36.7947 76.9744 36.9653 77.3904 37.136C77.8064 37.296 78.169 37.5627 78.4784 37.936C78.7984 38.2987 78.9637 38.7893 78.9744 39.408C78.9744 39.9307 78.825 40.4 78.5264 40.816C78.2384 41.2213 77.817 41.5413 77.2624 41.776C76.7184 42.0107 76.0837 42.128 75.3584 42.128ZM84.2803 42.128C83.5016 42.128 82.8083 41.9947 82.2003 41.728C81.5923 41.4613 81.1123 41.0987 80.7603 40.64C80.4083 40.1707 80.2109 39.648 80.1683 39.072H82.8723C82.9043 39.3813 83.0483 39.632 83.3043 39.824C83.5603 40.016 83.8749 40.112 84.2483 40.112C84.5896 40.112 84.8509 40.048 85.0323 39.92C85.2243 39.7813 85.3203 39.6053 85.3203 39.392C85.3203 39.136 85.1869 38.9493 84.9203 38.832C84.6536 38.704 84.2216 38.5653 83.6243 38.416C82.9843 38.2667 82.4509 38.112 82.0243 37.952C81.5976 37.7813 81.2296 37.52 80.9203 37.168C80.6109 36.8053 80.4563 36.32 80.4563 35.712C80.4563 35.2 80.5949 34.736 80.8723 34.32C81.1603 33.8933 81.5763 33.5573 82.1203 33.312C82.6749 33.0667 83.3309 32.944 84.0883 32.944C85.2083 32.944 86.0883 33.2213 86.7283 33.776C87.3789 34.3307 87.7523 35.0667 87.8483 35.984H85.3203C85.2776 35.6747 85.1389 35.4293 84.9043 35.248C84.6803 35.0667 84.3816 34.976 84.0083 34.976C83.6883 34.976 83.4429 35.04 83.2723 35.168C83.1016 35.2853 83.0163 35.4507 83.0163 35.664C83.0163 35.92 83.1496 36.112 83.4163 36.24C83.6936 36.368 84.1203 36.496 84.6963 36.624C85.3576 36.7947 85.8963 36.9653 86.3123 37.136C86.7283 37.296 87.0909 37.5627 87.4003 37.936C87.7203 38.2987 87.8856 38.7893 87.8963 39.408C87.8963 39.9307 87.7469 40.4 87.4483 40.816C87.1603 41.2213 86.7389 41.5413 86.1843 41.776C85.6403 42.0107 85.0056 42.128 84.2803 42.128ZM97.9861 37.392C97.9861 37.648 97.9701 37.9147 97.9381 38.192H91.7461C91.7888 38.7467 91.9648 39.1733 92.2741 39.472C92.5941 39.76 92.9835 39.904 93.4421 39.904C94.1248 39.904 94.5995 39.616 94.8661 39.04H97.7781C97.6288 39.6267 97.3568 40.1547 96.9621 40.624C96.5781 41.0933 96.0928 41.4613 95.5061 41.728C94.9195 41.9947 94.2635 42.128 93.5381 42.128C92.6635 42.128 91.8848 41.9413 91.2021 41.568C90.5195 41.1947 89.9861 40.6613 89.6021 39.968C89.2181 39.2747 89.0261 38.464 89.0261 37.536C89.0261 36.608 89.2128 35.7973 89.5861 35.104C89.9701 34.4107 90.5035 33.8773 91.1861 33.504C91.8688 33.1307 92.6528 32.944 93.5381 32.944C94.4021 32.944 95.1701 33.1253 95.8421 33.488C96.5141 33.8507 97.0368 34.368 97.4101 35.04C97.7941 35.712 97.9861 36.496 97.9861 37.392ZM95.1861 36.672C95.1861 36.2027 95.0261 35.8293 94.7061 35.552C94.3861 35.2747 93.9861 35.136 93.5061 35.136C93.0475 35.136 92.6581 35.2693 92.3381 35.536C92.0288 35.8027 91.8368 36.1813 91.7621 36.672H95.1861ZM105.556 34.336C105.823 33.92 106.191 33.584 106.66 33.328C107.129 33.072 107.679 32.944 108.308 32.944C109.044 32.944 109.711 33.1307 110.308 33.504C110.905 33.8773 111.375 34.4107 111.716 35.104C112.068 35.7973 112.244 36.6027 112.244 37.52C112.244 38.4373 112.068 39.248 111.716 39.952C111.375 40.6453 110.905 41.184 110.308 41.568C109.711 41.9413 109.044 42.128 108.308 42.128C107.689 42.128 107.14 42 106.66 41.744C106.191 41.488 105.823 41.1573 105.556 40.752V46.256H102.82V33.072H105.556V34.336ZM109.46 37.52C109.46 36.8373 109.268 36.304 108.884 35.92C108.511 35.5253 108.047 35.328 107.492 35.328C106.948 35.328 106.484 35.5253 106.1 35.92C105.727 36.3147 105.54 36.8533 105.54 37.536C105.54 38.2187 105.727 38.7573 106.1 39.152C106.484 39.5467 106.948 39.744 107.492 39.744C108.036 39.744 108.5 39.5467 108.884 39.152C109.268 38.7467 109.46 38.2027 109.46 37.52ZM117.744 42.128C116.869 42.128 116.08 41.9413 115.376 41.568C114.682 41.1947 114.133 40.6613 113.728 39.968C113.333 39.2747 113.136 38.464 113.136 37.536C113.136 36.6187 113.338 35.8133 113.743 35.12C114.149 34.416 114.704 33.8773 115.408 33.504C116.112 33.1307 116.901 32.944 117.776 32.944C118.65 32.944 119.44 33.1307 120.144 33.504C120.848 33.8773 121.402 34.416 121.808 35.12C122.213 35.8133 122.416 36.6187 122.416 37.536C122.416 38.4533 122.208 39.264 121.792 39.968C121.386 40.6613 120.826 41.1947 120.112 41.568C119.408 41.9413 118.618 42.128 117.744 42.128ZM117.744 39.76C118.266 39.76 118.709 39.568 119.072 39.184C119.445 38.8 119.632 38.2507 119.632 37.536C119.632 36.8213 119.45 36.272 119.088 35.888C118.736 35.504 118.298 35.312 117.776 35.312C117.242 35.312 116.8 35.504 116.448 35.888C116.096 36.2613 115.92 36.8107 115.92 37.536C115.92 38.2507 116.09 38.8 116.432 39.184C116.784 39.568 117.221 39.76 117.744 39.76ZM126.603 34.56C126.923 34.0693 127.323 33.6853 127.803 33.408C128.283 33.12 128.816 32.976 129.403 32.976V35.872H128.651C127.968 35.872 127.456 36.0213 127.115 36.32C126.774 36.608 126.603 37.12 126.603 37.856V42H123.867V33.072H126.603V34.56ZM131.991 42.128C131.511 42.128 131.116 41.9893 130.807 41.712C130.508 41.424 130.359 41.072 130.359 40.656C130.359 40.2293 130.508 39.872 130.807 39.584C131.116 39.296 131.511 39.152 131.991 39.152C132.46 39.152 132.844 39.296 133.143 39.584C133.452 39.872 133.607 40.2293 133.607 40.656C133.607 41.072 133.452 41.424 133.143 41.712C132.844 41.9893 132.46 42.128 131.991 42.128ZM136.506 42.128C136.026 42.128 135.632 41.9893 135.322 41.712C135.024 41.424 134.874 41.072 134.874 40.656C134.874 40.2293 135.024 39.872 135.322 39.584C135.632 39.296 136.026 39.152 136.506 39.152C136.976 39.152 137.36 39.296 137.658 39.584C137.968 39.872 138.122 40.2293 138.122 40.656C138.122 41.072 137.968 41.424 137.658 41.712C137.36 41.9893 136.976 42.128 136.506 42.128ZM141.022 42.128C140.542 42.128 140.147 41.9893 139.838 41.712C139.539 41.424 139.39 41.072 139.39 40.656C139.39 40.2293 139.539 39.872 139.838 39.584C140.147 39.296 140.542 39.152 141.022 39.152C141.491 39.152 141.875 39.296 142.174 39.584C142.483 39.872 142.638 40.2293 142.638 40.656C142.638 41.072 142.483 41.424 142.174 41.712C141.875 41.9893 141.491 42.128 141.022 42.128Z" fill="#EB9B00"/>
<path d="M8.982 74.768H4.266L3.51 77H0.288L4.86 64.364H8.424L12.996 77H9.738L8.982 74.768ZM8.19 72.392L6.624 67.766L5.076 72.392H8.19ZM20.5075 66.848C21.6835 66.848 22.6195 67.232 23.3155 68C24.0235 68.756 24.3775 69.8 24.3775 71.132V77H21.3175V71.546C21.3175 70.874 21.1435 70.352 20.7955 69.98C20.4475 69.608 19.9795 69.422 19.3915 69.422C18.8035 69.422 18.3355 69.608 17.9875 69.98C17.6395 70.352 17.4655 70.874 17.4655 71.546V77H14.3875V66.956H17.4655V68.288C17.7775 67.844 18.1975 67.496 18.7255 67.244C19.2535 66.98 19.8475 66.848 20.5075 66.848ZM30.3324 66.812C31.0404 66.812 31.6584 66.956 32.1864 67.244C32.7264 67.532 33.1404 67.91 33.4284 68.378V66.956H36.5064V76.982C36.5064 77.906 36.3204 78.74 35.9484 79.484C35.5884 80.24 35.0304 80.84 34.2744 81.284C33.5304 81.728 32.6004 81.95 31.4844 81.95C29.9964 81.95 28.7904 81.596 27.8664 80.888C26.9424 80.192 26.4144 79.244 26.2824 78.044H29.3244C29.4204 78.428 29.6484 78.728 30.0084 78.944C30.3684 79.172 30.8124 79.286 31.3404 79.286C31.9764 79.286 32.4804 79.1 32.8524 78.728C33.2364 78.368 33.4284 77.786 33.4284 76.982V75.56C33.1284 76.028 32.7144 76.412 32.1864 76.712C31.6584 77 31.0404 77.144 30.3324 77.144C29.5044 77.144 28.7544 76.934 28.0824 76.514C27.4104 76.082 26.8764 75.476 26.4804 74.696C26.0964 73.904 25.9044 72.992 25.9044 71.96C25.9044 70.928 26.0964 70.022 26.4804 69.242C26.8764 68.462 27.4104 67.862 28.0824 67.442C28.7544 67.022 29.5044 66.812 30.3324 66.812ZM33.4284 71.978C33.4284 71.21 33.2124 70.604 32.7804 70.16C32.3604 69.716 31.8444 69.494 31.2324 69.494C30.6204 69.494 30.0984 69.716 29.6664 70.16C29.2464 70.592 29.0364 71.192 29.0364 71.96C29.0364 72.728 29.2464 73.34 29.6664 73.796C30.0984 74.24 30.6204 74.462 31.2324 74.462C31.8444 74.462 32.3604 74.24 32.7804 73.796C33.2124 73.352 33.4284 72.746 33.4284 71.978ZM48.6512 66.956V77H45.5732V75.632C45.2612 76.076 44.8352 76.436 44.2952 76.712C43.7672 76.976 43.1792 77.108 42.5312 77.108C41.7632 77.108 41.0852 76.94 40.4972 76.604C39.9092 76.256 39.4532 75.758 39.1292 75.11C38.8052 74.462 38.6432 73.7 38.6432 72.824V66.956H41.7032V72.41C41.7032 73.082 41.8772 73.604 42.2252 73.976C42.5732 74.348 43.0412 74.534 43.6292 74.534C44.2292 74.534 44.7032 74.348 45.0512 73.976C45.3992 73.604 45.5732 73.082 45.5732 72.41V66.956H48.6512ZM53.9401 63.68V77H50.8621V63.68H53.9401ZM55.5587 71.96C55.5587 70.928 55.7507 70.022 56.1347 69.242C56.5307 68.462 57.0647 67.862 57.7367 67.442C58.4087 67.022 59.1587 66.812 59.9867 66.812C60.6947 66.812 61.3127 66.956 61.8407 67.244C62.3807 67.532 62.7947 67.91 63.0827 68.378V66.956H66.1607V77H63.0827V75.578C62.7827 76.046 62.3627 76.424 61.8227 76.712C61.2947 77 60.6767 77.144 59.9687 77.144C59.1527 77.144 58.4087 76.934 57.7367 76.514C57.0647 76.082 56.5307 75.476 56.1347 74.696C55.7507 73.904 55.5587 72.992 55.5587 71.96ZM63.0827 71.978C63.0827 71.21 62.8667 70.604 62.4347 70.16C62.0147 69.716 61.4987 69.494 60.8867 69.494C60.2747 69.494 59.7527 69.716 59.3207 70.16C58.9007 70.592 58.6907 71.192 58.6907 71.96C58.6907 72.728 58.9007 73.34 59.3207 73.796C59.7527 74.24 60.2747 74.462 60.8867 74.462C61.4987 74.462 62.0147 74.24 62.4347 73.796C62.8667 73.352 63.0827 72.746 63.0827 71.978ZM71.4655 68.63C71.8255 68.078 72.2755 67.646 72.8155 67.334C73.3555 67.01 73.9555 66.848 74.6155 66.848V70.106H73.7695C73.0015 70.106 72.4255 70.274 72.0415 70.61C71.6575 70.934 71.4655 71.51 71.4655 72.338V77H68.3875V66.956H71.4655V68.63ZM79.2712 66.722V63.86H84.2572V77H81.0532V66.722H79.2712ZM86.0387 66.722V63.86H91.0247V77H87.8207V66.722H86.0387ZM106.719 71.816C106.719 72.104 106.701 72.404 106.665 72.716H99.6988C99.7468 73.34 99.9448 73.82 100.293 74.156C100.653 74.48 101.091 74.642 101.607 74.642C102.375 74.642 102.909 74.318 103.209 73.67H106.485C106.317 74.33 106.011 74.924 105.567 75.452C105.135 75.98 104.589 76.394 103.929 76.694C103.269 76.994 102.531 77.144 101.715 77.144C100.731 77.144 99.8548 76.934 99.0868 76.514C98.3188 76.094 97.7188 75.494 97.2868 74.714C96.8548 73.934 96.6388 73.022 96.6388 71.978C96.6388 70.934 96.8488 70.022 97.2688 69.242C97.7008 68.462 98.3008 67.862 99.0688 67.442C99.8368 67.022 100.719 66.812 101.715 66.812C102.687 66.812 103.551 67.016 104.307 67.424C105.063 67.832 105.651 68.414 106.071 69.17C106.503 69.926 106.719 70.808 106.719 71.816ZM103.569 71.006C103.569 70.478 103.389 70.058 103.029 69.746C102.669 69.434 102.219 69.278 101.679 69.278C101.163 69.278 100.725 69.428 100.365 69.728C100.017 70.028 99.8008 70.454 99.7168 71.006H103.569ZM9.342 91.364V93.83H4.194V96.494H8.046V98.888H4.194V104H1.116V91.364H9.342ZM12.5078 92.912C11.9678 92.912 11.5238 92.756 11.1758 92.444C10.8398 92.12 10.6718 91.724 10.6718 91.256C10.6718 90.776 10.8398 90.38 11.1758 90.068C11.5238 89.744 11.9678 89.582 12.5078 89.582C13.0358 89.582 13.4678 89.744 13.8038 90.068C14.1518 90.38 14.3258 90.776 14.3258 91.256C14.3258 91.724 14.1518 92.12 13.8038 92.444C13.4678 92.756 13.0358 92.912 12.5078 92.912ZM14.0378 93.956V104H10.9598V93.956H14.0378ZM19.3463 95.63C19.7063 95.078 20.1563 94.646 20.6963 94.334C21.2363 94.01 21.8363 93.848 22.4963 93.848V97.106H21.6503C20.8823 97.106 20.3063 97.274 19.9223 97.61C19.5383 97.934 19.3463 98.51 19.3463 99.338V104H16.2683V93.956H19.3463V95.63ZM33.4356 98.816C33.4356 99.104 33.4176 99.404 33.3816 99.716H26.4156C26.4636 100.34 26.6616 100.82 27.0096 101.156C27.3696 101.48 27.8076 101.642 28.3236 101.642C29.0916 101.642 29.6256 101.318 29.9256 100.67H33.2016C33.0336 101.33 32.7276 101.924 32.2836 102.452C31.8516 102.98 31.3056 103.394 30.6456 103.694C29.9856 103.994 29.2476 104.144 28.4316 104.144C27.4476 104.144 26.5716 103.934 25.8036 103.514C25.0356 103.094 24.4356 102.494 24.0036 101.714C23.5716 100.934 23.3556 100.022 23.3556 98.978C23.3556 97.934 23.5656 97.022 23.9856 96.242C24.4176 95.462 25.0176 94.862 25.7856 94.442C26.5536 94.022 27.4356 93.812 28.4316 93.812C29.4036 93.812 30.2676 94.016 31.0236 94.424C31.7796 94.832 32.3676 95.414 32.7876 96.17C33.2196 96.926 33.4356 97.808 33.4356 98.816ZM30.2856 98.006C30.2856 97.478 30.1056 97.058 29.7456 96.746C29.3856 96.434 28.9356 96.278 28.3956 96.278C27.8796 96.278 27.4416 96.428 27.0816 96.728C26.7336 97.028 26.5176 97.454 26.4336 98.006H30.2856ZM38.1374 95.378C38.4254 94.91 38.8394 94.532 39.3794 94.244C39.9194 93.956 40.5374 93.812 41.2334 93.812C42.0614 93.812 42.8114 94.022 43.4834 94.442C44.1554 94.862 44.6834 95.462 45.0674 96.242C45.4634 97.022 45.6614 97.928 45.6614 98.96C45.6614 99.992 45.4634 100.904 45.0674 101.696C44.6834 102.476 44.1554 103.082 43.4834 103.514C42.8114 103.934 42.0614 104.144 41.2334 104.144C40.5254 104.144 39.9074 104.006 39.3794 103.73C38.8514 103.442 38.4374 103.064 38.1374 102.596V104H35.0594V90.68H38.1374V95.378ZM42.5294 98.96C42.5294 98.192 42.3134 97.592 41.8814 97.16C41.4614 96.716 40.9394 96.494 40.3154 96.494C39.7034 96.494 39.1814 96.716 38.7494 97.16C38.3294 97.604 38.1194 98.21 38.1194 98.978C38.1194 99.746 38.3294 100.352 38.7494 100.796C39.1814 101.24 39.7034 101.462 40.3154 101.462C40.9274 101.462 41.4494 101.24 41.8814 100.796C42.3134 100.34 42.5294 99.728 42.5294 98.96ZM46.6642 98.96C46.6642 97.928 46.8562 97.022 47.2402 96.242C47.6362 95.462 48.1702 94.862 48.8422 94.442C49.5142 94.022 50.2642 93.812 51.0922 93.812C51.8002 93.812 52.4182 93.956 52.9462 94.244C53.4862 94.532 53.9002 94.91 54.1882 95.378V93.956H57.2662V104H54.1882V102.578C53.8882 103.046 53.4682 103.424 52.9282 103.712C52.4002 104 51.7822 104.144 51.0742 104.144C50.2582 104.144 49.5142 103.934 48.8422 103.514C48.1702 103.082 47.6362 102.476 47.2402 101.696C46.8562 100.904 46.6642 99.992 46.6642 98.96ZM54.1882 98.978C54.1882 98.21 53.9722 97.604 53.5402 97.16C53.1202 96.716 52.6042 96.494 51.9922 96.494C51.3802 96.494 50.8582 96.716 50.4262 97.16C50.0062 97.592 49.7962 98.192 49.7962 98.96C49.7962 99.728 50.0062 100.34 50.4262 100.796C50.8582 101.24 51.3802 101.462 51.9922 101.462C52.6042 101.462 53.1202 101.24 53.5402 100.796C53.9722 100.352 54.1882 99.746 54.1882 98.978ZM63.579 104.144C62.703 104.144 61.923 103.994 61.239 103.694C60.555 103.394 60.015 102.986 59.619 102.47C59.223 101.942 59.001 101.354 58.953 100.706H61.995C62.031 101.054 62.193 101.336 62.481 101.552C62.769 101.768 63.123 101.876 63.543 101.876C63.927 101.876 64.221 101.804 64.425 101.66C64.641 101.504 64.749 101.306 64.749 101.066C64.749 100.778 64.599 100.568 64.299 100.436C63.999 100.292 63.513 100.136 62.841 99.968C62.121 99.8 61.521 99.626 61.041 99.446C60.561 99.254 60.147 98.96 59.799 98.564C59.451 98.156 59.277 97.61 59.277 96.926C59.277 96.35 59.433 95.828 59.745 95.36C60.069 94.88 60.537 94.502 61.149 94.226C61.773 93.95 62.511 93.812 63.363 93.812C64.623 93.812 65.613 94.124 66.333 94.748C67.065 95.372 67.485 96.2 67.593 97.232H64.749C64.701 96.884 64.545 96.608 64.281 96.404C64.029 96.2 63.693 96.098 63.273 96.098C62.913 96.098 62.637 96.17 62.445 96.314C62.253 96.446 62.157 96.632 62.157 96.872C62.157 97.16 62.307 97.376 62.607 97.52C62.919 97.664 63.399 97.808 64.047 97.952C64.791 98.144 65.397 98.336 65.865 98.528C66.333 98.708 66.741 99.008 67.089 99.428C67.449 99.836 67.635 100.388 67.647 101.084C67.647 101.672 67.479 102.2 67.143 102.668C66.819 103.124 66.345 103.484 65.721 103.748C65.109 104.012 64.395 104.144 63.579 104.144ZM78.9981 98.816C78.9981 99.104 78.9801 99.404 78.9441 99.716H71.9781C72.0261 100.34 72.2241 100.82 72.5721 101.156C72.9321 101.48 73.3701 101.642 73.8861 101.642C74.6541 101.642 75.1881 101.318 75.4881 100.67H78.7641C78.5961 101.33 78.2901 101.924 77.8461 102.452C77.4141 102.98 76.8681 103.394 76.2081 103.694C75.5481 103.994 74.8101 104.144 73.9941 104.144C73.0101 104.144 72.1341 103.934 71.3661 103.514C70.5981 103.094 69.9981 102.494 69.5661 101.714C69.1341 100.934 68.9181 100.022 68.9181 98.978C68.9181 97.934 69.1281 97.022 69.5481 96.242C69.9801 95.462 70.5801 94.862 71.3481 94.442C72.1161 94.022 72.9981 93.812 73.9941 93.812C74.9661 93.812 75.8301 94.016 76.5861 94.424C77.3421 94.832 77.9301 95.414 78.3501 96.17C78.7821 96.926 78.9981 97.808 78.9981 98.816ZM75.8481 98.006C75.8481 97.478 75.6681 97.058 75.3081 96.746C74.9481 96.434 74.4981 96.278 73.9581 96.278C73.4421 96.278 73.0041 96.428 72.6441 96.728C72.2961 97.028 72.0801 97.454 71.9961 98.006H75.8481Z" fill="#002F52"/>
<path d="M0.602 129.114C0.602 128.162 0.816667 127.308 1.246 126.552C1.67533 125.787 2.25867 125.189 2.996 124.76C3.74267 124.331 4.56867 124.116 5.474 124.116C6.538 124.116 7.46667 124.373 8.26 124.886C9.05333 125.399 9.632 126.127 9.996 127.07H8.47C8.19933 126.482 7.80733 126.029 7.294 125.712C6.79 125.395 6.18333 125.236 5.474 125.236C4.79267 125.236 4.18133 125.395 3.64 125.712C3.09867 126.029 2.674 126.482 2.366 127.07C2.058 127.649 1.904 128.33 1.904 129.114C1.904 129.889 2.058 130.57 2.366 131.158C2.674 131.737 3.09867 132.185 3.64 132.502C4.18133 132.819 4.79267 132.978 5.474 132.978C6.18333 132.978 6.79 132.824 7.294 132.516C7.80733 132.199 8.19933 131.746 8.47 131.158H9.996C9.632 132.091 9.05333 132.815 8.26 133.328C7.46667 133.832 6.538 134.084 5.474 134.084C4.56867 134.084 3.74267 133.874 2.996 133.454C2.25867 133.025 1.67533 132.432 1.246 131.676C0.816667 130.92 0.602 130.066 0.602 129.114ZM15.2385 134.126C14.5198 134.126 13.8665 133.963 13.2785 133.636C12.6998 133.309 12.2425 132.847 11.9065 132.25C11.5798 131.643 11.4165 130.943 11.4165 130.15C11.4165 129.366 11.5845 128.675 11.9205 128.078C12.2658 127.471 12.7325 127.009 13.3205 126.692C13.9085 126.365 14.5665 126.202 15.2945 126.202C16.0225 126.202 16.6805 126.365 17.2685 126.692C17.8565 127.009 18.3185 127.467 18.6545 128.064C18.9998 128.661 19.1725 129.357 19.1725 130.15C19.1725 130.943 18.9951 131.643 18.6405 132.25C18.2951 132.847 17.8238 133.309 17.2265 133.636C16.6291 133.963 15.9665 134.126 15.2385 134.126ZM15.2385 133.006C15.6958 133.006 16.1251 132.899 16.5265 132.684C16.9278 132.469 17.2498 132.147 17.4925 131.718C17.7445 131.289 17.8705 130.766 17.8705 130.15C17.8705 129.534 17.7491 129.011 17.5065 128.582C17.2638 128.153 16.9465 127.835 16.5545 127.63C16.1625 127.415 15.7378 127.308 15.2805 127.308C14.8138 127.308 14.3845 127.415 13.9925 127.63C13.6098 127.835 13.3018 128.153 13.0685 128.582C12.8351 129.011 12.7185 129.534 12.7185 130.15C12.7185 130.775 12.8305 131.303 13.0545 131.732C13.2878 132.161 13.5958 132.483 13.9785 132.698C14.3611 132.903 14.7811 133.006 15.2385 133.006ZM24.5855 126.188C25.5189 126.188 26.2749 126.473 26.8535 127.042C27.4322 127.602 27.7215 128.414 27.7215 129.478V134H26.4615V129.66C26.4615 128.895 26.2702 128.311 25.8875 127.91C25.5049 127.499 24.9822 127.294 24.3195 127.294C23.6475 127.294 23.1109 127.504 22.7095 127.924C22.3175 128.344 22.1215 128.955 22.1215 129.758V134H20.8475V126.328H22.1215V127.42C22.3735 127.028 22.7142 126.725 23.1435 126.51C23.5822 126.295 24.0629 126.188 24.5855 126.188ZM32.5186 134.126C31.9306 134.126 31.4033 134.028 30.9366 133.832C30.4699 133.627 30.1013 133.347 29.8306 132.992C29.5599 132.628 29.4106 132.213 29.3826 131.746H30.6986C30.7359 132.129 30.9133 132.441 31.2306 132.684C31.5573 132.927 31.9819 133.048 32.5046 133.048C32.9899 133.048 33.3726 132.941 33.6526 132.726C33.9326 132.511 34.0726 132.241 34.0726 131.914C34.0726 131.578 33.9233 131.331 33.6246 131.172C33.3259 131.004 32.8639 130.841 32.2386 130.682C31.6693 130.533 31.2026 130.383 30.8386 130.234C30.4839 130.075 30.1759 129.847 29.9146 129.548C29.6626 129.24 29.5366 128.839 29.5366 128.344C29.5366 127.952 29.6533 127.593 29.8866 127.266C30.1199 126.939 30.4513 126.683 30.8806 126.496C31.3099 126.3 31.7999 126.202 32.3506 126.202C33.1999 126.202 33.8859 126.417 34.4086 126.846C34.9313 127.275 35.2113 127.863 35.2486 128.61H33.9746C33.9466 128.209 33.7833 127.887 33.4846 127.644C33.1953 127.401 32.8033 127.28 32.3086 127.28C31.8513 127.28 31.4873 127.378 31.2166 127.574C30.9459 127.77 30.8106 128.027 30.8106 128.344C30.8106 128.596 30.8899 128.806 31.0486 128.974C31.2166 129.133 31.4219 129.263 31.6646 129.366C31.9166 129.459 32.2619 129.567 32.7006 129.688C33.2513 129.837 33.6993 129.987 34.0446 130.136C34.3899 130.276 34.6839 130.491 34.9266 130.78C35.1786 131.069 35.3093 131.447 35.3186 131.914C35.3186 132.334 35.2019 132.712 34.9686 133.048C34.7353 133.384 34.4039 133.65 33.9746 133.846C33.5546 134.033 33.0693 134.126 32.5186 134.126ZM38.6711 127.378V131.9C38.6711 132.273 38.7504 132.539 38.9091 132.698C39.0677 132.847 39.3431 132.922 39.7351 132.922H40.6731V134H39.5251C38.8157 134 38.2837 133.837 37.9291 133.51C37.5744 133.183 37.3971 132.647 37.3971 131.9V127.378H36.4031V126.328H37.3971V124.396H38.6711V126.328H40.6731V127.378H38.6711ZM43.4907 127.574C43.7147 127.135 44.032 126.795 44.4427 126.552C44.8627 126.309 45.3713 126.188 45.9687 126.188V127.504H45.6327C44.2047 127.504 43.4907 128.279 43.4907 129.828V134H42.2167V126.328H43.4907V127.574ZM54.2433 126.328V134H52.9693V132.866C52.7267 133.258 52.386 133.566 51.9473 133.79C51.518 134.005 51.042 134.112 50.5193 134.112C49.922 134.112 49.3853 133.991 48.9093 133.748C48.4333 133.496 48.0553 133.123 47.7753 132.628C47.5047 132.133 47.3693 131.531 47.3693 130.822V126.328H48.6293V130.654C48.6293 131.41 48.8207 131.993 49.2033 132.404C49.586 132.805 50.1087 133.006 50.7713 133.006C51.4527 133.006 51.9893 132.796 52.3813 132.376C52.7733 131.956 52.9693 131.345 52.9693 130.542V126.328H54.2433ZM57.0524 125.082C56.8097 125.082 56.6044 124.998 56.4364 124.83C56.2684 124.662 56.1844 124.457 56.1844 124.214C56.1844 123.971 56.2684 123.766 56.4364 123.598C56.6044 123.43 56.8097 123.346 57.0524 123.346C57.2857 123.346 57.4817 123.43 57.6404 123.598C57.8084 123.766 57.8924 123.971 57.8924 124.214C57.8924 124.457 57.8084 124.662 57.6404 124.83C57.4817 124.998 57.2857 125.082 57.0524 125.082ZM57.6684 126.328V134H56.3944V126.328H57.6684ZM63.5777 126.188C64.5111 126.188 65.2671 126.473 65.8457 127.042C66.4244 127.602 66.7137 128.414 66.7137 129.478V134H65.4537V129.66C65.4537 128.895 65.2624 128.311 64.8797 127.91C64.4971 127.499 63.9744 127.294 63.3117 127.294C62.6397 127.294 62.1031 127.504 61.7017 127.924C61.3097 128.344 61.1137 128.955 61.1137 129.758V134H59.8397V126.328H61.1137V127.42C61.3657 127.028 61.7064 126.725 62.1357 126.51C62.5744 126.295 63.0551 126.188 63.5777 126.188ZM68.3188 130.136C68.3188 129.352 68.4775 128.666 68.7948 128.078C69.1121 127.481 69.5461 127.019 70.0968 126.692C70.6568 126.365 71.2821 126.202 71.9728 126.202C72.5701 126.202 73.1255 126.342 73.6388 126.622C74.1521 126.893 74.5441 127.252 74.8148 127.7V123.64H76.1028V134H74.8148V132.558C74.5628 133.015 74.1895 133.393 73.6948 133.692C73.2001 133.981 72.6215 134.126 71.9588 134.126C71.2775 134.126 70.6568 133.958 70.0968 133.622C69.5461 133.286 69.1121 132.815 68.7948 132.208C68.4775 131.601 68.3188 130.911 68.3188 130.136ZM74.8148 130.15C74.8148 129.571 74.6981 129.067 74.4648 128.638C74.2315 128.209 73.9141 127.882 73.5128 127.658C73.1208 127.425 72.6868 127.308 72.2108 127.308C71.7348 127.308 71.3008 127.42 70.9088 127.644C70.5168 127.868 70.2041 128.195 69.9708 128.624C69.7375 129.053 69.6208 129.557 69.6208 130.136C69.6208 130.724 69.7375 131.237 69.9708 131.676C70.2041 132.105 70.5168 132.437 70.9088 132.67C71.3008 132.894 71.7348 133.006 72.2108 133.006C72.6868 133.006 73.1208 132.894 73.5128 132.67C73.9141 132.437 74.2315 132.105 74.4648 131.676C74.6981 131.237 74.8148 130.729 74.8148 130.15ZM81.6017 134.126C80.8831 134.126 80.2297 133.963 79.6417 133.636C79.0631 133.309 78.6057 132.847 78.2697 132.25C77.9431 131.643 77.7797 130.943 77.7797 130.15C77.7797 129.366 77.9477 128.675 78.2837 128.078C78.6291 127.471 79.0957 127.009 79.6837 126.692C80.2717 126.365 80.9297 126.202 81.6577 126.202C82.3857 126.202 83.0437 126.365 83.6317 126.692C84.2197 127.009 84.6817 127.467 85.0177 128.064C85.3631 128.661 85.5357 129.357 85.5357 130.15C85.5357 130.943 85.3584 131.643 85.0037 132.25C84.6584 132.847 84.1871 133.309 83.5897 133.636C82.9924 133.963 82.3297 134.126 81.6017 134.126ZM81.6017 133.006C82.0591 133.006 82.4884 132.899 82.8897 132.684C83.2911 132.469 83.6131 132.147 83.8557 131.718C84.1077 131.289 84.2337 130.766 84.2337 130.15C84.2337 129.534 84.1124 129.011 83.8697 128.582C83.6271 128.153 83.3097 127.835 82.9177 127.63C82.5257 127.415 82.1011 127.308 81.6437 127.308C81.1771 127.308 80.7477 127.415 80.3557 127.63C79.9731 127.835 79.6651 128.153 79.4317 128.582C79.1984 129.011 79.0817 129.534 79.0817 130.15C79.0817 130.775 79.1937 131.303 79.4177 131.732C79.6511 132.161 79.9591 132.483 80.3417 132.698C80.7244 132.903 81.1444 133.006 81.6017 133.006ZM97.7472 126.328V134H96.4732V132.866C96.2306 133.258 95.8899 133.566 95.4512 133.79C95.0219 134.005 94.5459 134.112 94.0232 134.112C93.4259 134.112 92.8892 133.991 92.4132 133.748C91.9372 133.496 91.5592 133.123 91.2792 132.628C91.0086 132.133 90.8732 131.531 90.8732 130.822V126.328H92.1332V130.654C92.1332 131.41 92.3246 131.993 92.7072 132.404C93.0899 132.805 93.6126 133.006 94.2752 133.006C94.9566 133.006 95.4932 132.796 95.8852 132.376C96.2772 131.956 96.4732 131.345 96.4732 130.542V126.328H97.7472ZM109.124 126.188C109.722 126.188 110.254 126.314 110.72 126.566C111.187 126.809 111.556 127.177 111.826 127.672C112.097 128.167 112.232 128.769 112.232 129.478V134H110.972V129.66C110.972 128.895 110.781 128.311 110.398 127.91C110.025 127.499 109.516 127.294 108.872 127.294C108.21 127.294 107.682 127.509 107.29 127.938C106.898 128.358 106.702 128.969 106.702 129.772V134H105.442V129.66C105.442 128.895 105.251 128.311 104.868 127.91C104.495 127.499 103.986 127.294 103.342 127.294C102.68 127.294 102.152 127.509 101.76 127.938C101.368 128.358 101.172 128.969 101.172 129.772V134H99.8983V126.328H101.172V127.434C101.424 127.033 101.76 126.725 102.18 126.51C102.61 126.295 103.081 126.188 103.594 126.188C104.238 126.188 104.808 126.333 105.302 126.622C105.797 126.911 106.166 127.336 106.408 127.896C106.623 127.355 106.978 126.935 107.472 126.636C107.967 126.337 108.518 126.188 109.124 126.188ZM113.846 130.136C113.846 129.352 114.005 128.666 114.322 128.078C114.639 127.481 115.073 127.019 115.624 126.692C116.184 126.365 116.805 126.202 117.486 126.202C118.158 126.202 118.741 126.347 119.236 126.636C119.731 126.925 120.099 127.289 120.342 127.728V126.328H121.63V134H120.342V132.572C120.09 133.02 119.712 133.393 119.208 133.692C118.713 133.981 118.135 134.126 117.472 134.126C116.791 134.126 116.175 133.958 115.624 133.622C115.073 133.286 114.639 132.815 114.322 132.208C114.005 131.601 113.846 130.911 113.846 130.136ZM120.342 130.15C120.342 129.571 120.225 129.067 119.992 128.638C119.759 128.209 119.441 127.882 119.04 127.658C118.648 127.425 118.214 127.308 117.738 127.308C117.262 127.308 116.828 127.42 116.436 127.644C116.044 127.868 115.731 128.195 115.498 128.624C115.265 129.053 115.148 129.557 115.148 130.136C115.148 130.724 115.265 131.237 115.498 131.676C115.731 132.105 116.044 132.437 116.436 132.67C116.828 132.894 117.262 133.006 117.738 133.006C118.214 133.006 118.648 132.894 119.04 132.67C119.441 132.437 119.759 132.105 119.992 131.676C120.225 131.237 120.342 130.729 120.342 130.15ZM0.602 151.136C0.602 150.352 0.760667 149.666 1.078 149.078C1.39533 148.481 1.82933 148.019 2.38 147.692C2.94 147.365 3.56067 147.202 4.242 147.202C4.914 147.202 5.49733 147.347 5.992 147.636C6.48667 147.925 6.85533 148.289 7.098 148.728V147.328H8.386V155H7.098V153.572C6.846 154.02 6.468 154.393 5.964 154.692C5.46933 154.981 4.89067 155.126 4.228 155.126C3.54667 155.126 2.93067 154.958 2.38 154.622C1.82933 154.286 1.39533 153.815 1.078 153.208C0.760667 152.601 0.602 151.911 0.602 151.136ZM7.098 151.15C7.098 150.571 6.98133 150.067 6.748 149.638C6.51467 149.209 6.19733 148.882 5.796 148.658C5.404 148.425 4.97 148.308 4.494 148.308C4.018 148.308 3.584 148.42 3.192 148.644C2.8 148.868 2.48733 149.195 2.254 149.624C2.02067 150.053 1.904 150.557 1.904 151.136C1.904 151.724 2.02067 152.237 2.254 152.676C2.48733 153.105 2.8 153.437 3.192 153.67C3.584 153.894 4.018 154.006 4.494 154.006C4.97 154.006 5.404 153.894 5.796 153.67C6.19733 153.437 6.51467 153.105 6.748 152.676C6.98133 152.237 7.098 151.729 7.098 151.15ZM11.8129 148.742C12.0649 148.303 12.4383 147.939 12.9329 147.65C13.4369 147.351 14.0203 147.202 14.6829 147.202C15.3643 147.202 15.9803 147.365 16.5309 147.692C17.0909 148.019 17.5296 148.481 17.8469 149.078C18.1643 149.666 18.3229 150.352 18.3229 151.136C18.3229 151.911 18.1643 152.601 17.8469 153.208C17.5296 153.815 17.0909 154.286 16.5309 154.622C15.9803 154.958 15.3643 155.126 14.6829 155.126C14.0296 155.126 13.4509 154.981 12.9469 154.692C12.4523 154.393 12.0743 154.025 11.8129 153.586V158.64H10.5389V147.328H11.8129V148.742ZM17.0209 151.136C17.0209 150.557 16.9043 150.053 16.6709 149.624C16.4376 149.195 16.1203 148.868 15.7189 148.644C15.3269 148.42 14.8929 148.308 14.4169 148.308C13.9503 148.308 13.5163 148.425 13.1149 148.658C12.7229 148.882 12.4056 149.213 12.1629 149.652C11.9296 150.081 11.8129 150.581 11.8129 151.15C11.8129 151.729 11.9296 152.237 12.1629 152.676C12.4056 153.105 12.7229 153.437 13.1149 153.67C13.5163 153.894 13.9503 154.006 14.4169 154.006C14.8929 154.006 15.3269 153.894 15.7189 153.67C16.1203 153.437 16.4376 153.105 16.6709 152.676C16.9043 152.237 17.0209 151.724 17.0209 151.136ZM21.2739 144.64V155H19.9999V144.64H21.2739ZM24.1032 146.082C23.8605 146.082 23.6552 145.998 23.4872 145.83C23.3192 145.662 23.2352 145.457 23.2352 145.214C23.2352 144.971 23.3192 144.766 23.4872 144.598C23.6552 144.43 23.8605 144.346 24.1032 144.346C24.3365 144.346 24.5325 144.43 24.6912 144.598C24.8592 144.766 24.9432 144.971 24.9432 145.214C24.9432 145.457 24.8592 145.662 24.6912 145.83C24.5325 145.998 24.3365 146.082 24.1032 146.082ZM24.7192 147.328V155H23.4452V147.328H24.7192ZM26.4145 151.15C26.4145 150.357 26.5732 149.666 26.8905 149.078C27.2078 148.481 27.6465 148.019 28.2065 147.692C28.7758 147.365 29.4245 147.202 30.1525 147.202C31.0952 147.202 31.8698 147.431 32.4765 147.888C33.0925 148.345 33.4985 148.98 33.6945 149.792H32.3225C32.1918 149.325 31.9352 148.957 31.5525 148.686C31.1792 148.415 30.7125 148.28 30.1525 148.28C29.4245 148.28 28.8365 148.532 28.3885 149.036C27.9405 149.531 27.7165 150.235 27.7165 151.15C27.7165 152.074 27.9405 152.788 28.3885 153.292C28.8365 153.796 29.4245 154.048 30.1525 154.048C30.7125 154.048 31.1792 153.917 31.5525 153.656C31.9258 153.395 32.1825 153.021 32.3225 152.536H33.6945C33.4892 153.32 33.0785 153.95 32.4625 154.426C31.8465 154.893 31.0765 155.126 30.1525 155.126C29.4245 155.126 28.7758 154.963 28.2065 154.636C27.6465 154.309 27.2078 153.847 26.8905 153.25C26.5732 152.653 26.4145 151.953 26.4145 151.15ZM34.9184 151.136C34.9184 150.352 35.0771 149.666 35.3944 149.078C35.7117 148.481 36.1457 148.019 36.6964 147.692C37.2564 147.365 37.8771 147.202 38.5584 147.202C39.2304 147.202 39.8137 147.347 40.3084 147.636C40.8031 147.925 41.1717 148.289 41.4144 148.728V147.328H42.7024V155H41.4144V153.572C41.1624 154.02 40.7844 154.393 40.2804 154.692C39.7857 154.981 39.2071 155.126 38.5444 155.126C37.8631 155.126 37.2471 154.958 36.6964 154.622C36.1457 154.286 35.7117 153.815 35.3944 153.208C35.0771 152.601 34.9184 151.911 34.9184 151.136ZM41.4144 151.15C41.4144 150.571 41.2977 150.067 41.0644 149.638C40.8311 149.209 40.5137 148.882 40.1124 148.658C39.7204 148.425 39.2864 148.308 38.8104 148.308C38.3344 148.308 37.9004 148.42 37.5084 148.644C37.1164 148.868 36.8037 149.195 36.5704 149.624C36.3371 150.053 36.2204 150.557 36.2204 151.136C36.2204 151.724 36.3371 152.237 36.5704 152.676C36.8037 153.105 37.1164 153.437 37.5084 153.67C37.9004 153.894 38.3344 154.006 38.8104 154.006C39.2864 154.006 39.7204 153.894 40.1124 153.67C40.5137 153.437 40.8311 153.105 41.0644 152.676C41.2977 152.237 41.4144 151.729 41.4144 151.15ZM48.1173 154.048C48.6773 154.048 49.144 153.917 49.5173 153.656C49.8907 153.395 50.1473 153.021 50.2873 152.536H51.6593C51.4727 153.264 51.104 153.861 50.5533 154.328C50.012 154.785 49.3307 155.047 48.5093 155.112V155.812C49.06 155.803 49.4987 155.919 49.8253 156.162C50.152 156.405 50.3153 156.75 50.3153 157.198C50.3153 157.637 50.1567 157.987 49.8393 158.248C49.522 158.509 49.1113 158.64 48.6073 158.64H46.9973V157.814H48.3553C48.6633 157.814 48.8873 157.767 49.0273 157.674C49.1767 157.581 49.2513 157.422 49.2513 157.198C49.2513 156.983 49.1767 156.829 49.0273 156.736C48.8873 156.643 48.6633 156.596 48.3553 156.596H47.6553V155.098C47.0113 155.033 46.442 154.832 45.9473 154.496C45.4527 154.151 45.0653 153.693 44.7853 153.124C44.5147 152.545 44.3793 151.887 44.3793 151.15C44.3793 150.357 44.538 149.666 44.8553 149.078C45.1727 148.481 45.6113 148.019 46.1713 147.692C46.7407 147.365 47.3893 147.202 48.1173 147.202C49.06 147.202 49.8347 147.431 50.4413 147.888C51.0573 148.345 51.4633 148.98 51.6593 149.792H50.2873C50.1567 149.325 49.9 148.957 49.5173 148.686C49.144 148.415 48.6773 148.28 48.1173 148.28C47.3893 148.28 46.8013 148.532 46.3533 149.036C45.9053 149.531 45.6813 150.235 45.6813 151.15C45.6813 152.074 45.9053 152.788 46.3533 153.292C46.8013 153.796 47.3893 154.048 48.1173 154.048ZM52.8833 151.136C52.8833 150.352 53.0419 149.666 53.3593 149.078C53.6766 148.481 54.1106 148.019 54.6613 147.692C55.2213 147.365 55.8419 147.202 56.5233 147.202C57.1953 147.202 57.7786 147.347 58.2733 147.636C58.7679 147.925 59.1366 148.289 59.3793 148.728V147.328H60.6673V155H59.3793V153.572C59.1273 154.02 58.7493 154.393 58.2453 154.692C57.7506 154.981 57.1719 155.126 56.5093 155.126C55.8279 155.126 55.2119 154.958 54.6613 154.622C54.1106 154.286 53.6766 153.815 53.3593 153.208C53.0419 152.601 52.8833 151.911 52.8833 151.136ZM59.3793 151.15C59.3793 150.571 59.2626 150.067 59.0293 149.638C58.7959 149.209 58.4786 148.882 58.0773 148.658C57.6853 148.425 57.2513 148.308 56.7753 148.308C56.2993 148.308 55.8653 148.42 55.4733 148.644C55.0813 148.868 54.7686 149.195 54.5353 149.624C54.3019 150.053 54.1853 150.557 54.1853 151.136C54.1853 151.724 54.3019 152.237 54.5353 152.676C54.7686 153.105 55.0813 153.437 55.4733 153.67C55.8653 153.894 56.2993 154.006 56.7753 154.006C57.2513 154.006 57.6853 153.894 58.0773 153.67C58.4786 153.437 58.7959 153.105 59.0293 152.676C59.2626 152.237 59.3793 151.729 59.3793 151.15ZM54.9693 146.502C55.0346 146.026 55.1886 145.662 55.4313 145.41C55.6833 145.158 55.9959 145.032 56.3693 145.032C56.5466 145.032 56.6959 145.065 56.8173 145.13C56.9479 145.186 57.1019 145.27 57.2793 145.382C57.4099 145.475 57.5266 145.55 57.6293 145.606C57.7319 145.653 57.8439 145.676 57.9653 145.676C58.1239 145.676 58.2593 145.625 58.3713 145.522C58.4833 145.419 58.5533 145.27 58.5813 145.074H59.3093C59.2533 145.541 59.0993 145.9 58.8473 146.152C58.5953 146.404 58.2826 146.53 57.9093 146.53C57.7319 146.53 57.5733 146.502 57.4333 146.446C57.3026 146.381 57.1533 146.287 56.9853 146.166C56.8359 146.073 56.7146 146.003 56.6213 145.956C56.5373 145.909 56.4346 145.886 56.3133 145.886C56.1546 145.886 56.0193 145.937 55.9073 146.04C55.8046 146.143 55.7393 146.297 55.7113 146.502H54.9693ZM66.1662 155.126C65.4475 155.126 64.7942 154.963 64.2062 154.636C63.6275 154.309 63.1702 153.847 62.8342 153.25C62.5075 152.643 62.3442 151.943 62.3442 151.15C62.3442 150.366 62.5122 149.675 62.8482 149.078C63.1935 148.471 63.6602 148.009 64.2482 147.692C64.8362 147.365 65.4942 147.202 66.2222 147.202C66.9502 147.202 67.6082 147.365 68.1962 147.692C68.7842 148.009 69.2462 148.467 69.5822 149.064C69.9275 149.661 70.1002 150.357 70.1002 151.15C70.1002 151.943 69.9229 152.643 69.5682 153.25C69.2229 153.847 68.7515 154.309 68.1542 154.636C67.5569 154.963 66.8942 155.126 66.1662 155.126ZM66.1662 154.006C66.6235 154.006 67.0529 153.899 67.4542 153.684C67.8555 153.469 68.1775 153.147 68.4202 152.718C68.6722 152.289 68.7982 151.766 68.7982 151.15C68.7982 150.534 68.6769 150.011 68.4342 149.582C68.1915 149.153 67.8742 148.835 67.4822 148.63C67.0902 148.415 66.6655 148.308 66.2082 148.308C65.7415 148.308 65.3122 148.415 64.9202 148.63C64.5375 148.835 64.2295 149.153 63.9962 149.582C63.7629 150.011 63.6462 150.534 63.6462 151.15C63.6462 151.775 63.7582 152.303 63.9822 152.732C64.2155 153.161 64.5235 153.483 64.9062 153.698C65.2889 153.903 65.7089 154.006 66.1662 154.006ZM76.1657 146.082C75.923 146.082 75.7177 145.998 75.5497 145.83C75.3817 145.662 75.2977 145.457 75.2977 145.214C75.2977 144.971 75.3817 144.766 75.5497 144.598C75.7177 144.43 75.923 144.346 76.1657 144.346C76.399 144.346 76.595 144.43 76.7537 144.598C76.9217 144.766 77.0057 144.971 77.0057 145.214C77.0057 145.457 76.9217 145.662 76.7537 145.83C76.595 145.998 76.399 146.082 76.1657 146.082ZM76.7817 147.328V155H75.5077V147.328H76.7817ZM82.691 147.188C83.6243 147.188 84.3803 147.473 84.959 148.042C85.5377 148.602 85.827 149.414 85.827 150.478V155H84.567V150.66C84.567 149.895 84.3757 149.311 83.993 148.91C83.6103 148.499 83.0877 148.294 82.425 148.294C81.753 148.294 81.2163 148.504 80.815 148.924C80.423 149.344 80.227 149.955 80.227 150.758V155H78.953V147.328H80.227V148.42C80.479 148.028 80.8197 147.725 81.249 147.51C81.6877 147.295 82.1683 147.188 82.691 147.188ZM89.4621 148.378V152.9C89.4621 153.273 89.5414 153.539 89.7001 153.698C89.8587 153.847 90.1341 153.922 90.5261 153.922H91.4641V155H90.3161C89.6067 155 89.0747 154.837 88.7201 154.51C88.3654 154.183 88.1881 153.647 88.1881 152.9V148.378H87.1941V147.328H88.1881V145.396H89.4621V147.328H91.4641V148.378H89.4621ZM100.008 150.87C100.008 151.113 99.9937 151.369 99.9657 151.64H93.8337C93.8804 152.396 94.137 152.989 94.6037 153.418C95.0797 153.838 95.6537 154.048 96.3257 154.048C96.8764 154.048 97.3337 153.922 97.6977 153.67C98.071 153.409 98.3324 153.063 98.4817 152.634H99.8537C99.6484 153.371 99.2377 153.973 98.6217 154.44C98.0057 154.897 97.2404 155.126 96.3257 155.126C95.5977 155.126 94.9444 154.963 94.3657 154.636C93.7964 154.309 93.3484 153.847 93.0217 153.25C92.695 152.643 92.5317 151.943 92.5317 151.15C92.5317 150.357 92.6904 149.661 93.0077 149.064C93.325 148.467 93.7684 148.009 94.3377 147.692C94.9164 147.365 95.579 147.202 96.3257 147.202C97.0537 147.202 97.6977 147.361 98.2577 147.678C98.8177 147.995 99.247 148.434 99.5457 148.994C99.8537 149.545 100.008 150.17 100.008 150.87ZM98.6917 150.604C98.6917 150.119 98.5844 149.703 98.3697 149.358C98.155 149.003 97.861 148.737 97.4877 148.56C97.1237 148.373 96.7177 148.28 96.2697 148.28C95.6257 148.28 95.075 148.485 94.6177 148.896C94.1697 149.307 93.913 149.876 93.8477 150.604H98.6917ZM104.853 147.202C105.516 147.202 106.095 147.347 106.589 147.636C107.093 147.925 107.467 148.289 107.709 148.728V147.328H108.997V155.168C108.997 155.868 108.848 156.489 108.549 157.03C108.251 157.581 107.821 158.01 107.261 158.318C106.711 158.626 106.067 158.78 105.329 158.78C104.321 158.78 103.481 158.542 102.809 158.066C102.137 157.59 101.741 156.941 101.619 156.12H102.879C103.019 156.587 103.309 156.96 103.747 157.24C104.186 157.529 104.713 157.674 105.329 157.674C106.029 157.674 106.599 157.455 107.037 157.016C107.485 156.577 107.709 155.961 107.709 155.168V153.558C107.457 154.006 107.084 154.379 106.589 154.678C106.095 154.977 105.516 155.126 104.853 155.126C104.172 155.126 103.551 154.958 102.991 154.622C102.441 154.286 102.007 153.815 101.689 153.208C101.372 152.601 101.213 151.911 101.213 151.136C101.213 150.352 101.372 149.666 101.689 149.078C102.007 148.481 102.441 148.019 102.991 147.692C103.551 147.365 104.172 147.202 104.853 147.202ZM107.709 151.15C107.709 150.571 107.593 150.067 107.359 149.638C107.126 149.209 106.809 148.882 106.407 148.658C106.015 148.425 105.581 148.308 105.105 148.308C104.629 148.308 104.195 148.42 103.803 148.644C103.411 148.868 103.099 149.195 102.865 149.624C102.632 150.053 102.515 150.557 102.515 151.136C102.515 151.724 102.632 152.237 102.865 152.676C103.099 153.105 103.411 153.437 103.803 153.67C104.195 153.894 104.629 154.006 105.105 154.006C105.581 154.006 106.015 153.894 106.407 153.67C106.809 153.437 107.126 153.105 107.359 152.676C107.593 152.237 107.709 151.729 107.709 151.15ZM112.424 148.574C112.648 148.135 112.966 147.795 113.376 147.552C113.796 147.309 114.305 147.188 114.902 147.188V148.504H114.566C113.138 148.504 112.424 149.279 112.424 150.828V155H111.15V147.328H112.424V148.574ZM115.897 151.136C115.897 150.352 116.056 149.666 116.373 149.078C116.69 148.481 117.124 148.019 117.675 147.692C118.235 147.365 118.856 147.202 119.537 147.202C120.209 147.202 120.792 147.347 121.287 147.636C121.782 147.925 122.15 148.289 122.393 148.728V147.328H123.681V155H122.393V153.572C122.141 154.02 121.763 154.393 121.259 154.692C120.764 154.981 120.186 155.126 119.523 155.126C118.842 155.126 118.226 154.958 117.675 154.622C117.124 154.286 116.69 153.815 116.373 153.208C116.056 152.601 115.897 151.911 115.897 151.136ZM122.393 151.15C122.393 150.571 122.276 150.067 122.043 149.638C121.81 149.209 121.492 148.882 121.091 148.658C120.699 148.425 120.265 148.308 119.789 148.308C119.313 148.308 118.879 148.42 118.487 148.644C118.095 148.868 117.782 149.195 117.549 149.624C117.316 150.053 117.199 150.557 117.199 151.136C117.199 151.724 117.316 152.237 117.549 152.676C117.782 153.105 118.095 153.437 118.487 153.67C118.879 153.894 119.313 154.006 119.789 154.006C120.265 154.006 120.699 153.894 121.091 153.67C121.492 153.437 121.81 153.105 122.043 152.676C122.276 152.237 122.393 151.729 122.393 151.15ZM125.358 151.136C125.358 150.352 125.517 149.666 125.834 149.078C126.151 148.481 126.585 148.019 127.136 147.692C127.696 147.365 128.321 147.202 129.012 147.202C129.609 147.202 130.165 147.342 130.678 147.622C131.191 147.893 131.583 148.252 131.854 148.7V144.64H133.142V155H131.854V153.558C131.602 154.015 131.229 154.393 130.734 154.692C130.239 154.981 129.661 155.126 128.998 155.126C128.317 155.126 127.696 154.958 127.136 154.622C126.585 154.286 126.151 153.815 125.834 153.208C125.517 152.601 125.358 151.911 125.358 151.136ZM131.854 151.15C131.854 150.571 131.737 150.067 131.504 149.638C131.271 149.209 130.953 148.882 130.552 148.658C130.16 148.425 129.726 148.308 129.25 148.308C128.774 148.308 128.34 148.42 127.948 148.644C127.556 148.868 127.243 149.195 127.01 149.624C126.777 150.053 126.66 150.557 126.66 151.136C126.66 151.724 126.777 152.237 127.01 152.676C127.243 153.105 127.556 153.437 127.948 153.67C128.34 153.894 128.774 154.006 129.25 154.006C129.726 154.006 130.16 153.894 130.552 153.67C130.953 153.437 131.271 153.105 131.504 152.676C131.737 152.237 131.854 151.729 131.854 151.15ZM134.819 151.136C134.819 150.352 134.977 149.666 135.295 149.078C135.612 148.481 136.046 148.019 136.597 147.692C137.157 147.365 137.777 147.202 138.459 147.202C139.131 147.202 139.714 147.347 140.209 147.636C140.703 147.925 141.072 148.289 141.315 148.728V147.328H142.603V155H141.315V153.572C141.063 154.02 140.685 154.393 140.181 154.692C139.686 154.981 139.107 155.126 138.445 155.126C137.763 155.126 137.147 154.958 136.597 154.622C136.046 154.286 135.612 153.815 135.295 153.208C134.977 152.601 134.819 151.911 134.819 151.136ZM141.315 151.15C141.315 150.571 141.198 150.067 140.965 149.638C140.731 149.209 140.414 148.882 140.013 148.658C139.621 148.425 139.187 148.308 138.711 148.308C138.235 148.308 137.801 148.42 137.409 148.644C137.017 148.868 136.704 149.195 136.471 149.624C136.237 150.053 136.121 150.557 136.121 151.136C136.121 151.724 136.237 152.237 136.471 152.676C136.704 153.105 137.017 153.437 137.409 153.67C137.801 153.894 138.235 154.006 138.711 154.006C139.187 154.006 139.621 153.894 140.013 153.67C140.414 153.437 140.731 153.105 140.965 152.676C141.198 152.237 141.315 151.729 141.315 151.15ZM0.602 172.15C0.602 171.357 0.760667 170.666 1.078 170.078C1.39533 169.481 1.834 169.019 2.394 168.692C2.96333 168.365 3.612 168.202 4.34 168.202C5.28267 168.202 6.05733 168.431 6.664 168.888C7.28 169.345 7.686 169.98 7.882 170.792H6.51C6.37933 170.325 6.12267 169.957 5.74 169.686C5.36667 169.415 4.9 169.28 4.34 169.28C3.612 169.28 3.024 169.532 2.576 170.036C2.128 170.531 1.904 171.235 1.904 172.15C1.904 173.074 2.128 173.788 2.576 174.292C3.024 174.796 3.612 175.048 4.34 175.048C4.9 175.048 5.36667 174.917 5.74 174.656C6.11333 174.395 6.37 174.021 6.51 173.536H7.882C7.67667 174.32 7.266 174.95 6.65 175.426C6.034 175.893 5.264 176.126 4.34 176.126C3.612 176.126 2.96333 175.963 2.394 175.636C1.834 175.309 1.39533 174.847 1.078 174.25C0.760667 173.653 0.602 172.953 0.602 172.15ZM12.9279 176.126C12.2092 176.126 11.5559 175.963 10.9679 175.636C10.3892 175.309 9.93191 174.847 9.59591 174.25C9.26924 173.643 9.10591 172.943 9.10591 172.15C9.10591 171.366 9.27391 170.675 9.60991 170.078C9.95524 169.471 10.4219 169.009 11.0099 168.692C11.5979 168.365 12.2559 168.202 12.9839 168.202C13.7119 168.202 14.3699 168.365 14.9579 168.692C15.5459 169.009 16.0079 169.467 16.3439 170.064C16.6892 170.661 16.8619 171.357 16.8619 172.15C16.8619 172.943 16.6846 173.643 16.3299 174.25C15.9846 174.847 15.5132 175.309 14.9159 175.636C14.3186 175.963 13.6559 176.126 12.9279 176.126ZM12.9279 175.006C13.3852 175.006 13.8146 174.899 14.2159 174.684C14.6172 174.469 14.9392 174.147 15.1819 173.718C15.4339 173.289 15.5599 172.766 15.5599 172.15C15.5599 171.534 15.4386 171.011 15.1959 170.582C14.9532 170.153 14.6359 169.835 14.2439 169.63C13.8519 169.415 13.4272 169.308 12.9699 169.308C12.5032 169.308 12.0739 169.415 11.6819 169.63C11.2992 169.835 10.9912 170.153 10.7579 170.582C10.5246 171.011 10.4079 171.534 10.4079 172.15C10.4079 172.775 10.5199 173.303 10.7439 173.732C10.9772 174.161 11.2852 174.483 11.6679 174.698C12.0506 174.903 12.4706 175.006 12.9279 175.006ZM27.763 168.188C28.3603 168.188 28.8923 168.314 29.359 168.566C29.8257 168.809 30.1943 169.177 30.465 169.672C30.7357 170.167 30.871 170.769 30.871 171.478V176H29.611V171.66C29.611 170.895 29.4197 170.311 29.037 169.91C28.6637 169.499 28.155 169.294 27.511 169.294C26.8483 169.294 26.321 169.509 25.929 169.938C25.537 170.358 25.341 170.969 25.341 171.772V176H24.081V171.66C24.081 170.895 23.8897 170.311 23.507 169.91C23.1337 169.499 22.625 169.294 21.981 169.294C21.3183 169.294 20.791 169.509 20.399 169.938C20.007 170.358 19.811 170.969 19.811 171.772V176H18.537V168.328H19.811V169.434C20.063 169.033 20.399 168.725 20.819 168.51C21.2483 168.295 21.7197 168.188 22.233 168.188C22.877 168.188 23.4463 168.333 23.941 168.622C24.4357 168.911 24.8043 169.336 25.047 169.896C25.2617 169.355 25.6163 168.935 26.111 168.636C26.6057 168.337 27.1563 168.188 27.763 168.188ZM36.2172 172.136C36.2172 171.352 36.3759 170.666 36.6932 170.078C37.0106 169.481 37.4446 169.019 37.9952 168.692C38.5552 168.365 39.1759 168.202 39.8572 168.202C40.5292 168.202 41.1126 168.347 41.6072 168.636C42.1019 168.925 42.4706 169.289 42.7132 169.728V168.328H44.0012V176H42.7132V174.572C42.4612 175.02 42.0832 175.393 41.5792 175.692C41.0846 175.981 40.5059 176.126 39.8432 176.126C39.1619 176.126 38.5459 175.958 37.9952 175.622C37.4446 175.286 37.0106 174.815 36.6932 174.208C36.3759 173.601 36.2172 172.911 36.2172 172.136ZM42.7132 172.15C42.7132 171.571 42.5966 171.067 42.3632 170.638C42.1299 170.209 41.8126 169.882 41.4112 169.658C41.0192 169.425 40.5852 169.308 40.1092 169.308C39.6332 169.308 39.1992 169.42 38.8072 169.644C38.4152 169.868 38.1026 170.195 37.8692 170.624C37.6359 171.053 37.5192 171.557 37.5192 172.136C37.5192 172.724 37.6359 173.237 37.8692 173.676C38.1026 174.105 38.4152 174.437 38.8072 174.67C39.1992 174.894 39.6332 175.006 40.1092 175.006C40.5852 175.006 41.0192 174.894 41.4112 174.67C41.8126 174.437 42.1299 174.105 42.3632 173.676C42.5966 173.237 42.7132 172.729 42.7132 172.15ZM51.1606 169.742C51.4126 169.303 51.7859 168.939 52.2806 168.65C52.7846 168.351 53.3679 168.202 54.0306 168.202C54.7119 168.202 55.3279 168.365 55.8786 168.692C56.4386 169.019 56.8773 169.481 57.1946 170.078C57.5119 170.666 57.6706 171.352 57.6706 172.136C57.6706 172.911 57.5119 173.601 57.1946 174.208C56.8773 174.815 56.4386 175.286 55.8786 175.622C55.3279 175.958 54.7119 176.126 54.0306 176.126C53.3773 176.126 52.7986 175.981 52.2946 175.692C51.7999 175.393 51.4219 175.025 51.1606 174.586V179.64H49.8866V168.328H51.1606V169.742ZM56.3686 172.136C56.3686 171.557 56.2519 171.053 56.0186 170.624C55.7853 170.195 55.4679 169.868 55.0666 169.644C54.6746 169.42 54.2406 169.308 53.7646 169.308C53.2979 169.308 52.8639 169.425 52.4626 169.658C52.0706 169.882 51.7533 170.213 51.5106 170.652C51.2773 171.081 51.1606 171.581 51.1606 172.15C51.1606 172.729 51.2773 173.237 51.5106 173.676C51.7533 174.105 52.0706 174.437 52.4626 174.67C52.8639 174.894 53.2979 175.006 53.7646 175.006C54.2406 175.006 54.6746 174.894 55.0666 174.67C55.4679 174.437 55.7853 174.105 56.0186 173.676C56.2519 173.237 56.3686 172.724 56.3686 172.136ZM60.6215 165.64V176H59.3475V165.64H60.6215ZM62.3168 172.136C62.3168 171.352 62.4755 170.666 62.7928 170.078C63.1102 169.481 63.5442 169.019 64.0948 168.692C64.6548 168.365 65.2755 168.202 65.9568 168.202C66.6288 168.202 67.2122 168.347 67.7068 168.636C68.2015 168.925 68.5702 169.289 68.8128 169.728V168.328H70.1008V176H68.8128V174.572C68.5608 175.02 68.1828 175.393 67.6788 175.692C67.1842 175.981 66.6055 176.126 65.9428 176.126C65.2615 176.126 64.6455 175.958 64.0948 175.622C63.5442 175.286 63.1102 174.815 62.7928 174.208C62.4755 173.601 62.3168 172.911 62.3168 172.136ZM68.8128 172.15C68.8128 171.571 68.6962 171.067 68.4628 170.638C68.2295 170.209 67.9122 169.882 67.5108 169.658C67.1188 169.425 66.6848 169.308 66.2088 169.308C65.7328 169.308 65.2988 169.42 64.9068 169.644C64.5148 169.868 64.2022 170.195 63.9688 170.624C63.7355 171.053 63.6188 171.557 63.6188 172.136C63.6188 172.724 63.7355 173.237 63.9688 173.676C64.2022 174.105 64.5148 174.437 64.9068 174.67C65.2988 174.894 65.7328 175.006 66.2088 175.006C66.6848 175.006 67.1188 174.894 67.5108 174.67C67.9122 174.437 68.2295 174.105 68.4628 173.676C68.6962 173.237 68.8128 172.729 68.8128 172.15ZM73.8078 169.378V173.9C73.8078 174.273 73.8871 174.539 74.0458 174.698C74.2044 174.847 74.4798 174.922 74.8718 174.922H75.8098V176H74.6618C73.9524 176 73.4204 175.837 73.0658 175.51C72.7111 175.183 72.5338 174.647 72.5338 173.9V169.378H71.5398V168.328H72.5338V166.396H73.8078V168.328H75.8098V169.378H73.8078ZM76.8774 172.136C76.8774 171.352 77.0361 170.666 77.3534 170.078C77.6707 169.481 78.1047 169.019 78.6554 168.692C79.2154 168.365 79.8361 168.202 80.5174 168.202C81.1894 168.202 81.7727 168.347 82.2674 168.636C82.7621 168.925 83.1307 169.289 83.3734 169.728V168.328H84.6614V176H83.3734V174.572C83.1214 175.02 82.7434 175.393 82.2394 175.692C81.7447 175.981 81.1661 176.126 80.5034 176.126C79.8221 176.126 79.2061 175.958 78.6554 175.622C78.1047 175.286 77.6707 174.815 77.3534 174.208C77.0361 173.601 76.8774 172.911 76.8774 172.136ZM83.3734 172.15C83.3734 171.571 83.2567 171.067 83.0234 170.638C82.7901 170.209 82.4727 169.882 82.0714 169.658C81.6794 169.425 81.2454 169.308 80.7694 169.308C80.2934 169.308 79.8594 169.42 79.4674 169.644C79.0754 169.868 78.7627 170.195 78.5294 170.624C78.2961 171.053 78.1794 171.557 78.1794 172.136C78.1794 172.724 78.2961 173.237 78.5294 173.676C78.7627 174.105 79.0754 174.437 79.4674 174.67C79.8594 174.894 80.2934 175.006 80.7694 175.006C81.2454 175.006 81.6794 174.894 82.0714 174.67C82.4727 174.437 82.7901 174.105 83.0234 173.676C83.2567 173.237 83.3734 172.729 83.3734 172.15ZM89.9363 169.378H88.3263V176H87.0523V169.378H86.0583V168.328H87.0523V167.782C87.0523 166.923 87.2717 166.298 87.7103 165.906C88.1583 165.505 88.8723 165.304 89.8523 165.304V166.368C89.2923 166.368 88.8957 166.48 88.6623 166.704C88.4383 166.919 88.3263 167.278 88.3263 167.782V168.328H89.9363V169.378ZM94.7678 176.126C94.0491 176.126 93.3958 175.963 92.8078 175.636C92.2291 175.309 91.7718 174.847 91.4358 174.25C91.1091 173.643 90.9458 172.943 90.9458 172.15C90.9458 171.366 91.1138 170.675 91.4498 170.078C91.7951 169.471 92.2618 169.009 92.8498 168.692C93.4378 168.365 94.0958 168.202 94.8238 168.202C95.5518 168.202 96.2098 168.365 96.7978 168.692C97.3858 169.009 97.8478 169.467 98.1838 170.064C98.5291 170.661 98.7018 171.357 98.7018 172.15C98.7018 172.943 98.5244 173.643 98.1698 174.25C97.8244 174.847 97.3531 175.309 96.7558 175.636C96.1584 175.963 95.4958 176.126 94.7678 176.126ZM94.7678 175.006C95.2251 175.006 95.6544 174.899 96.0558 174.684C96.4571 174.469 96.7791 174.147 97.0218 173.718C97.2738 173.289 97.3998 172.766 97.3998 172.15C97.3998 171.534 97.2784 171.011 97.0358 170.582C96.7931 170.153 96.4758 169.835 96.0838 169.63C95.6918 169.415 95.2671 169.308 94.8098 169.308C94.3431 169.308 93.9138 169.415 93.5218 169.63C93.1391 169.835 92.8311 170.153 92.5978 170.582C92.3644 171.011 92.2478 171.534 92.2478 172.15C92.2478 172.775 92.3598 173.303 92.5838 173.732C92.8171 174.161 93.1251 174.483 93.5078 174.698C93.8904 174.903 94.3104 175.006 94.7678 175.006ZM101.651 169.574C101.875 169.135 102.192 168.795 102.603 168.552C103.023 168.309 103.531 168.188 104.129 168.188V169.504H103.793C102.365 169.504 101.651 170.279 101.651 171.828V176H100.377V168.328H101.651V169.574ZM114.825 168.188C115.423 168.188 115.955 168.314 116.421 168.566C116.888 168.809 117.257 169.177 117.527 169.672C117.798 170.167 117.933 170.769 117.933 171.478V176H116.673V171.66C116.673 170.895 116.482 170.311 116.099 169.91C115.726 169.499 115.217 169.294 114.573 169.294C113.911 169.294 113.383 169.509 112.991 169.938C112.599 170.358 112.403 170.969 112.403 171.772V176H111.143V171.66C111.143 170.895 110.952 170.311 110.569 169.91C110.196 169.499 109.687 169.294 109.043 169.294C108.381 169.294 107.853 169.509 107.461 169.938C107.069 170.358 106.873 170.969 106.873 171.772V176H105.599V168.328H106.873V169.434C107.125 169.033 107.461 168.725 107.881 168.51C108.311 168.295 108.782 168.188 109.295 168.188C109.939 168.188 110.509 168.333 111.003 168.622C111.498 168.911 111.867 169.336 112.109 169.896C112.324 169.355 112.679 168.935 113.173 168.636C113.668 168.337 114.219 168.188 114.825 168.188ZM119.547 172.136C119.547 171.352 119.706 170.666 120.023 170.078C120.341 169.481 120.775 169.019 121.325 168.692C121.885 168.365 122.506 168.202 123.187 168.202C123.859 168.202 124.443 168.347 124.937 168.636C125.432 168.925 125.801 169.289 126.043 169.728V168.328H127.331V176H126.043V174.572C125.791 175.02 125.413 175.393 124.909 175.692C124.415 175.981 123.836 176.126 123.173 176.126C122.492 176.126 121.876 175.958 121.325 175.622C120.775 175.286 120.341 174.815 120.023 174.208C119.706 173.601 119.547 172.911 119.547 172.136ZM126.043 172.15C126.043 171.571 125.927 171.067 125.693 170.638C125.46 170.209 125.143 169.882 124.741 169.658C124.349 169.425 123.915 169.308 123.439 169.308C122.963 169.308 122.529 169.42 122.137 169.644C121.745 169.868 121.433 170.195 121.199 170.624C120.966 171.053 120.849 171.557 120.849 172.136C120.849 172.724 120.966 173.237 121.199 173.676C121.433 174.105 121.745 174.437 122.137 174.67C122.529 174.894 122.963 175.006 123.439 175.006C123.915 175.006 124.349 174.894 124.741 174.67C125.143 174.437 125.46 174.105 125.693 173.676C125.927 173.237 126.043 172.729 126.043 172.15ZM0.602 193.136C0.602 192.352 0.760667 191.666 1.078 191.078C1.39533 190.481 1.82933 190.019 2.38 189.692C2.94 189.365 3.56533 189.202 4.256 189.202C4.85333 189.202 5.40867 189.342 5.922 189.622C6.43533 189.893 6.82733 190.252 7.098 190.7V186.64H8.386V197H7.098V195.558C6.846 196.015 6.47267 196.393 5.978 196.692C5.48333 196.981 4.90467 197.126 4.242 197.126C3.56067 197.126 2.94 196.958 2.38 196.622C1.82933 196.286 1.39533 195.815 1.078 195.208C0.760667 194.601 0.602 193.911 0.602 193.136ZM7.098 193.15C7.098 192.571 6.98133 192.067 6.748 191.638C6.51467 191.209 6.19733 190.882 5.796 190.658C5.404 190.425 4.97 190.308 4.494 190.308C4.018 190.308 3.584 190.42 3.192 190.644C2.8 190.868 2.48733 191.195 2.254 191.624C2.02067 192.053 1.904 192.557 1.904 193.136C1.904 193.724 2.02067 194.237 2.254 194.676C2.48733 195.105 2.8 195.437 3.192 195.67C3.584 195.894 4.018 196.006 4.494 196.006C4.97 196.006 5.404 195.894 5.796 195.67C6.19733 195.437 6.51467 195.105 6.748 194.676C6.98133 194.237 7.098 193.729 7.098 193.15ZM13.8849 197.126C13.1663 197.126 12.5129 196.963 11.9249 196.636C11.3463 196.309 10.8889 195.847 10.5529 195.25C10.2263 194.643 10.0629 193.943 10.0629 193.15C10.0629 192.366 10.2309 191.675 10.5669 191.078C10.9123 190.471 11.3789 190.009 11.9669 189.692C12.5549 189.365 13.2129 189.202 13.9409 189.202C14.6689 189.202 15.3269 189.365 15.9149 189.692C16.5029 190.009 16.9649 190.467 17.3009 191.064C17.6463 191.661 17.8189 192.357 17.8189 193.15C17.8189 193.943 17.6416 194.643 17.2869 195.25C16.9416 195.847 16.4703 196.309 15.8729 196.636C15.2756 196.963 14.6129 197.126 13.8849 197.126ZM13.8849 196.006C14.3423 196.006 14.7716 195.899 15.1729 195.684C15.5743 195.469 15.8963 195.147 16.1389 194.718C16.3909 194.289 16.5169 193.766 16.5169 193.15C16.5169 192.534 16.3956 192.011 16.1529 191.582C15.9103 191.153 15.5929 190.835 15.2009 190.63C14.8089 190.415 14.3843 190.308 13.9269 190.308C13.4603 190.308 13.0309 190.415 12.6389 190.63C12.2563 190.835 11.9483 191.153 11.7149 191.582C11.4816 192.011 11.3649 192.534 11.3649 193.15C11.3649 193.775 11.4769 194.303 11.7009 194.732C11.9343 195.161 12.2423 195.483 12.6249 195.698C13.0076 195.903 13.4276 196.006 13.8849 196.006ZM30.6184 190.07C30.3478 189.501 29.9558 189.062 29.4424 188.754C28.9291 188.437 28.3318 188.278 27.6504 188.278C26.9691 188.278 26.3531 188.437 25.8024 188.754C25.2611 189.062 24.8318 189.51 24.5144 190.098C24.2064 190.677 24.0524 191.349 24.0524 192.114C24.0524 192.879 24.2064 193.551 24.5144 194.13C24.8318 194.709 25.2611 195.157 25.8024 195.474C26.3531 195.782 26.9691 195.936 27.6504 195.936C28.6024 195.936 29.3864 195.651 30.0024 195.082C30.6184 194.513 30.9778 193.743 31.0804 192.772H27.1884V191.736H32.4384V192.716C32.3638 193.519 32.1118 194.256 31.6824 194.928C31.2531 195.591 30.6884 196.118 29.9884 196.51C29.2884 196.893 28.5091 197.084 27.6504 197.084C26.7451 197.084 25.9191 196.874 25.1724 196.454C24.4258 196.025 23.8331 195.432 23.3944 194.676C22.9651 193.92 22.7504 193.066 22.7504 192.114C22.7504 191.162 22.9651 190.308 23.3944 189.552C23.8331 188.787 24.4258 188.194 25.1724 187.774C25.9191 187.345 26.7451 187.13 27.6504 187.13C28.6864 187.13 29.6011 187.387 30.3944 187.9C31.1971 188.413 31.7804 189.137 32.1444 190.07H30.6184ZM37.4689 197.126C36.7503 197.126 36.0969 196.963 35.5089 196.636C34.9303 196.309 34.4729 195.847 34.1369 195.25C33.8103 194.643 33.6469 193.943 33.6469 193.15C33.6469 192.366 33.8149 191.675 34.1509 191.078C34.4963 190.471 34.9629 190.009 35.5509 189.692C36.1389 189.365 36.7969 189.202 37.5249 189.202C38.2529 189.202 38.9109 189.365 39.4989 189.692C40.0869 190.009 40.5489 190.467 40.8849 191.064C41.2303 191.661 41.4029 192.357 41.4029 193.15C41.4029 193.943 41.2256 194.643 40.8709 195.25C40.5256 195.847 40.0543 196.309 39.4569 196.636C38.8596 196.963 38.1969 197.126 37.4689 197.126ZM37.4689 196.006C37.9263 196.006 38.3556 195.899 38.7569 195.684C39.1583 195.469 39.4803 195.147 39.7229 194.718C39.9749 194.289 40.1009 193.766 40.1009 193.15C40.1009 192.534 39.9796 192.011 39.7369 191.582C39.4943 191.153 39.1769 190.835 38.7849 190.63C38.3929 190.415 37.9683 190.308 37.5109 190.308C37.0443 190.308 36.6149 190.415 36.2229 190.63C35.8403 190.835 35.5323 191.153 35.2989 191.582C35.0656 192.011 34.9489 192.534 34.9489 193.15C34.9489 193.775 35.0609 194.303 35.2849 194.732C35.5183 195.161 35.8263 195.483 36.2089 195.698C36.5916 195.903 37.0116 196.006 37.4689 196.006ZM46.424 197.126C45.7053 197.126 45.052 196.963 44.464 196.636C43.8853 196.309 43.428 195.847 43.092 195.25C42.7653 194.643 42.602 193.943 42.602 193.15C42.602 192.366 42.77 191.675 43.106 191.078C43.4513 190.471 43.918 190.009 44.506 189.692C45.094 189.365 45.752 189.202 46.48 189.202C47.208 189.202 47.866 189.365 48.454 189.692C49.042 190.009 49.504 190.467 49.84 191.064C50.1853 191.661 50.358 192.357 50.358 193.15C50.358 193.943 50.1807 194.643 49.826 195.25C49.4807 195.847 49.0093 196.309 48.412 196.636C47.8147 196.963 47.152 197.126 46.424 197.126ZM46.424 196.006C46.8813 196.006 47.3107 195.899 47.712 195.684C48.1133 195.469 48.4353 195.147 48.678 194.718C48.93 194.289 49.056 193.766 49.056 193.15C49.056 192.534 48.9347 192.011 48.692 191.582C48.4493 191.153 48.132 190.835 47.74 190.63C47.348 190.415 46.9233 190.308 46.466 190.308C45.9993 190.308 45.57 190.415 45.178 190.63C44.7953 190.835 44.4873 191.153 44.254 191.582C44.0207 192.011 43.904 192.534 43.904 193.15C43.904 193.775 44.016 194.303 44.24 194.732C44.4733 195.161 44.7813 195.483 45.164 195.698C45.5467 195.903 45.9667 196.006 46.424 196.006ZM55.1971 189.202C55.8597 189.202 56.4384 189.347 56.9331 189.636C57.4371 189.925 57.8104 190.289 58.0531 190.728V189.328H59.3411V197.168C59.3411 197.868 59.1917 198.489 58.8931 199.03C58.5944 199.581 58.1651 200.01 57.6051 200.318C57.0544 200.626 56.4104 200.78 55.6731 200.78C54.6651 200.78 53.8251 200.542 53.1531 200.066C52.4811 199.59 52.0844 198.941 51.9631 198.12H53.2231C53.3631 198.587 53.6524 198.96 54.0911 199.24C54.5297 199.529 55.0571 199.674 55.6731 199.674C56.3731 199.674 56.9424 199.455 57.3811 199.016C57.8291 198.577 58.0531 197.961 58.0531 197.168V195.558C57.8011 196.006 57.4277 196.379 56.9331 196.678C56.4384 196.977 55.8597 197.126 55.1971 197.126C54.5157 197.126 53.8951 196.958 53.3351 196.622C52.7844 196.286 52.3504 195.815 52.0331 195.208C51.7157 194.601 51.5571 193.911 51.5571 193.136C51.5571 192.352 51.7157 191.666 52.0331 191.078C52.3504 190.481 52.7844 190.019 53.3351 189.692C53.8951 189.365 54.5157 189.202 55.1971 189.202ZM58.0531 193.15C58.0531 192.571 57.9364 192.067 57.7031 191.638C57.4697 191.209 57.1524 190.882 56.7511 190.658C56.3591 190.425 55.9251 190.308 55.4491 190.308C54.9731 190.308 54.5391 190.42 54.1471 190.644C53.7551 190.868 53.4424 191.195 53.2091 191.624C52.9757 192.053 52.8591 192.557 52.8591 193.136C52.8591 193.724 52.9757 194.237 53.2091 194.676C53.4424 195.105 53.7551 195.437 54.1471 195.67C54.5391 195.894 54.9731 196.006 55.4491 196.006C55.9251 196.006 56.3591 195.894 56.7511 195.67C57.1524 195.437 57.4697 195.105 57.7031 194.676C57.9364 194.237 58.0531 193.729 58.0531 193.15ZM62.768 186.64V197H61.494V186.64H62.768ZM71.9393 192.87C71.9393 193.113 71.9253 193.369 71.8973 193.64H65.7653C65.812 194.396 66.0687 194.989 66.5353 195.418C67.0113 195.838 67.5853 196.048 68.2573 196.048C68.808 196.048 69.2653 195.922 69.6293 195.67C70.0027 195.409 70.264 195.063 70.4133 194.634H71.7853C71.58 195.371 71.1693 195.973 70.5533 196.44C69.9373 196.897 69.172 197.126 68.2573 197.126C67.5293 197.126 66.876 196.963 66.2973 196.636C65.728 196.309 65.28 195.847 64.9533 195.25C64.6267 194.643 64.4633 193.943 64.4633 193.15C64.4633 192.357 64.622 191.661 64.9393 191.064C65.2567 190.467 65.7 190.009 66.2693 189.692C66.848 189.365 67.5107 189.202 68.2573 189.202C68.9853 189.202 69.6293 189.361 70.1893 189.678C70.7493 189.995 71.1787 190.434 71.4773 190.994C71.7853 191.545 71.9393 192.17 71.9393 192.87ZM70.6233 192.604C70.6233 192.119 70.516 191.703 70.3013 191.358C70.0867 191.003 69.7927 190.737 69.4193 190.56C69.0553 190.373 68.6493 190.28 68.2013 190.28C67.5573 190.28 67.0067 190.485 66.5493 190.896C66.1013 191.307 65.8447 191.876 65.7793 192.604H70.6233ZM74.027 197.084C73.7843 197.084 73.579 197 73.411 196.832C73.243 196.664 73.159 196.459 73.159 196.216C73.159 195.973 73.243 195.768 73.411 195.6C73.579 195.432 73.7843 195.348 74.027 195.348C74.2603 195.348 74.4563 195.432 74.615 195.6C74.783 195.768 74.867 195.973 74.867 196.216C74.867 196.459 74.783 196.664 74.615 196.832C74.4563 197 74.2603 197.084 74.027 197.084Z" fill="black" fill-opacity="0.85"/>
</svg>
